
            <!--?xml version="1.0" encoding="utf-8"?-->
      
      <!-- Generator: Adobe Illustrator 21.0.2, SVG Export Plug-In . SVG Version: 6.00 Build 0)  -->
      <svg version="1.1" id="Layer_1" xmlns="http://www.w3.org/2000/svg" xmlns:xlink="http://www.w3.org/1999/xlink" x="0px" y="0px" width="512px" height="512px" viewBox="0 0 512 512" enable-background="new 0 0 512 512" xml:space="preserve">
      <path fill="#9355b7" d="M414.724,141.24191c-21.25522,0.937-45.96786,6.44711-66.5882,14.49458
      	c-29.63992,11.57968-56.66446,39.73178-64.67654,47.94106l-30.53023,31.26483l-0.05865-0.06393l-15.27199,16.09686
      	c-22.62503,23.85269-66.24655,42.89636-97.7222,45.09604C106.413,298.4169,44,298.65063,44,298.65063v19.80698v53.53903
      	c0,0,21.70375,0.13187,51.75092-1.23862c20.65132-0.93701,44.66013-6.44711,64.69037-14.4946
      	c28.79456-11.57968,55.04611-39.73178,62.83398-47.94107l29.65375-31.2648l0.04836,0.05402l21.42418-22.58603
      	c22.62164-23.85271,66.24658-42.89044,97.72223-45.09604C405.58701,207.08989,468,206.84624,468,206.84624v-13.30391v-53.53906
      	C468,140.00327,445.65439,139.87541,414.724,141.24191z"></path>
      <path fill="#9355b7" d="M194.40128,262.35318c23.51535-9.28008,41.12337-24.83755,51.30925-35.02669l-22.43524-23.64894
      	c-7.78787-8.20927-34.03943-36.36137-62.83398-47.94106c-20.03026-8.04747-44.03906-13.55759-64.69038-14.49458
      	C65.70375,139.87541,44,140.00327,44,140.00327v53.53906v74.14523c29.07751,2.37143,60.47038,4.46921,89.14761,4.65109
      	C137.25375,272.36658,166.3555,273.41147,194.40128,262.35318z"></path>
      <path fill="#9355b7" d="M317.59872,243.15167c-29.27429,11.55165-49.40115,32.81503-57.41666,41.33203l23.27719,23.83865
      	c8.01208,8.20929,35.03662,36.36139,64.67654,47.94107c20.62033,8.04749,45.33298,13.55759,66.5882,14.4946
      	c30.93039,1.37048,53.276,1.23862,53.276,1.23862v-53.53903v-82.16673c-30.54404-1.79008-60.46695-2.94681-89.14761-3.12868
      	C374.74625,233.13029,345.64108,232.08937,317.59872,243.15167z"></path>
      </svg>
      
          