
            <!--?xml version="1.0" encoding="utf-8"?-->
      
      <!-- Generator: Adobe Illustrator 21.0.2, SVG Export Plug-In . SVG Version: 6.00 Build 0)  -->
      <svg version="1.1" id="Work_area" xmlns="http://www.w3.org/2000/svg" xmlns:xlink="http://www.w3.org/1999/xlink" x="0px" y="0px" width="512px" height="512px" viewBox="0 0 512 512" enable-background="new 0 0 512 512" xml:space="preserve">
      <path fill-rule="evenodd" clip-rule="evenodd" fill="#7dc540" d="M418.12708,139.63501
      	c-2.47458,6.81711-4.64954,13.94556-20.75629,45.87677c-16.10577,31.9312-33.86548,51.28864-66.05566,62.62845
      	c-33.24722,11.7113-60.50626,33.13516-80.01709,63.23236c-24.0676,37.13632-48.20978,74.22333-72.00696,111.51367
      	c-11.07031,17.35458-25.70273,27.33353-46.88629,24.69321c-18.48009-2.32108-31.63471-12.22452-37.61591-30.00342
      	c-6.63754-19.77731-1.45859-36.15744,13.66473-51.0824c30.6637-30.22504,59.36254-62.46313,90.50231-92.17847
      	c28.28926-26.95851,42.14944-59.69208,48.66016-97.23302c4.45067-25.62724,10.75069-51.03005,17.8268-76.06826
      	c5.96988-21.09028,21.20233-35.175,43.06427-36.50616c24.57782-1.49265,49.41028,0.63744,74.0773,2.11867
      	c4.11417,0.25121,10.69592,3.6484,14.89102,10.12506c-21.34787,10.50341-39.25024,19.046-56.89786,28.1097
      	c-14.84949,7.6125-19.18082,20.83856-12.00787,34.63123c7.84531,15.08189,23.28403,19.94203,38.05508,11.63974
      	c16.32776-9.19144,32.45618-18.69321,48.67886-28.0722C421.86227,127.5861,420.40762,134.32874,418.12708,139.63501z
      	 M119.41842,419.15894c8.48246,10.25229,24.63703,10.60062,34.15507,1.40231c9.45741-9.13525,9.73471-25.60117-0.13864-34.25281
      	c-10.66528-9.35968-21.96014-8.62454-33.11645-0.16086C111.46104,396.96585,110.31338,408.17087,119.41842,419.15894z"></path>
      </svg>
      
          