
            <!--?xml version="1.0" encoding="utf-8"?-->
      
      <!-- Generator: Adobe Illustrator 21.0.2, SVG Export Plug-In . SVG Version: 6.00 Build 0)  -->
      <svg version="1.1" id="Layer_1" xmlns="http://www.w3.org/2000/svg" xmlns:xlink="http://www.w3.org/1999/xlink" x="0px" y="0px" width="512px" height="512px" viewBox="0 0 512 512" enable-background="new 0 0 512 512" xml:space="preserve">
      <path fill="#7dc540" d="M156.34866,320.98724c-5.00523-7.66397-9.19336-16.04144-12.36116-25.035
      	c-6.94534-19.3118-8.47893-39.34012-5.51646-58.34592l-27.47864-33.61787l-43.41514,15.22421
      	C65.22668,231.17038,64,243.43033,64,256.00009c0,43.83643,14.71185,84.19815,39.32957,116.48834l8.37737-44.246
      	L156.34866,320.98724z"></path>
      <path fill="#7dc540" d="M246.44931,417.03857l15.93753-42.30444c-29.52435,1.63565-58.43289-7.96985-81.11253-26.15833
      	l-42.90392,7.05093l-8.58159,45.16602c33.71056,29.42761,77.74049,47.20734,126.05922,47.20734
      	c8.37634,0,16.54938-0.51035,24.61774-1.53296L246.44931,417.03857z"></path>
      <path fill="#7dc540" d="M433.08585,329.9798l-42.39371,14.81644l-28.60364-35.04916
      	c-12.8714,25.44357-34.73291,46.18665-63.13223,57.2225l-15.4263,40.66678l34.83447,29.93991
      	C370.26053,419.79846,412.04245,380.35565,433.08585,329.9798z"></path>
      <path fill="#7dc540" d="M408.56775,139.61435l-8.37625,44.03979l-44.53824,7.25621
      	c5.00433,7.66183,9.19345,16.04245,12.46283,25.034c6.94543,19.31268,8.478,39.3401,5.51645,58.34682l27.5813,33.61685
      	l43.21082-15.12241C446.77533,280.8298,448,268.56793,448,255.8974C447.89835,212.26535,433.1875,171.90364,408.56775,139.61435z"></path>
      <path fill="#7dc540" d="M382.11057,111.30811C348.39999,81.88049,304.2684,64.0001,255.94968,64.0001
      	c-8.27469,0-16.44774,0.50934-24.41542,1.53196l34.01735,29.32695l-15.93651,42.30537
      	c29.52242-1.63658,58.43297,7.96992,81.1115,26.15829l42.90594-7.05193L382.11057,111.30811z"></path>
      <path fill="#7dc540" d="M150.01509,202.2522c12.87047-25.44366,34.73099-46.18674,63.13232-57.22261l15.42427-40.66868
      	l-34.83354-29.93898C141.74141,92.20264,99.85792,131.74812,78.8125,182.12309l42.49637-14.91916L150.01509,202.2522z"></path>
      </svg>
      
          