
            <!--?xml version="1.0" encoding="utf-8"?-->
      
      <!-- Generator: Adobe Illustrator 21.0.2, SVG Export Plug-In . SVG Version: 6.00 Build 0)  -->
      <svg version="1.1" id="Layer_1" xmlns="http://www.w3.org/2000/svg" xmlns:xlink="http://www.w3.org/1999/xlink" x="0px" y="0px" width="512px" height="512px" viewBox="0 0 512 512" enable-background="new 0 0 512 512" xml:space="preserve">
      <path fill="#606060" d="M324,244.00009h-52v-100c0-11.0459-8.95435-19.99999-20-19.99999s-20,8.95409-20,19.99999v120
      	c0,11.0459,8.95435,20,20,20h72c11.04565,0,20-8.9541,20-20S335.04565,244.00009,324,244.00009z"></path>
      <path fill="#606060" d="M448,256.00009c0-106.03662-85.95898-192-192-192c-106.03613,0-192,85.96337-192,192
      	c0,45.22266,15.6438,86.78662,41.80298,119.59521L64,448.00009h55.42578l21.92627-37.97754
      	C173.34692,433.87704,213.02393,448.00009,256,448.00009c42.97729,0,82.65405-14.12256,114.64844-37.97656l21.92578,37.97656H448
      	l-41.80225-72.40332C432.35669,342.78769,448,301.22324,448,256.00009z M148.52051,363.48007
      	C119.81104,334.77109,104,296.60068,104,256.00009c0-40.59961,15.81104-78.77002,44.52075-107.47949
      	C177.23022,119.81114,215.40039,104.0001,256,104.0001c40.60107,0,78.77197,15.81104,107.48096,44.5205
      	C392.18945,177.22958,408,215.39999,408,256.00009c0,40.60107-15.81055,78.77148-44.51904,107.48047
      	C334.77222,392.18954,296.60156,408.00009,256,408.00009C215.40015,408.00009,177.22974,392.18954,148.52051,363.48007z"></path>
      <path fill="#606060" d="M414.39307,97.60899c18.53906,18.53955,33.47534,39.84325,44.50781,63.4082
      	C464.69995,149.94736,468,137.36435,468,124.0001c0-44.18262-35.81738-80-80-80c-13.3645,0-25.94775,3.2998-37.01758,9.09912
      	C374.54834,64.13194,395.85303,79.06895,414.39307,97.60899z"></path>
      <path fill="#606060" d="M97.60889,97.60899c18.54004-18.53955,39.84424-33.47656,63.40942-44.50928
      	C149.94824,47.30039,137.36475,44.0001,124,44.0001c-44.18286,0-80,35.81738-80,80c0,13.36474,3.30005,25.94823,9.09961,37.01806
      	C64.13232,137.45322,79.06934,116.14854,97.60889,97.60899z"></path>
      </svg>
      
          