
            <!--?xml version="1.0" encoding="utf-8"?-->
      
      <!-- Generator: Adobe Illustrator 21.0.2, SVG Export Plug-In . SVG Version: 6.00 Build 0)  -->
      <svg version="1.1" id="Layer_1" xmlns="http://www.w3.org/2000/svg" xmlns:xlink="http://www.w3.org/1999/xlink" x="0px" y="0px" width="512px" height="512px" viewBox="0 0 512 512" enable-background="new 0 0 512 512" xml:space="preserve">
      <path fill="#606060" d="M464.03796,421.93066l-61.81058-61.8096c32.86139-46.20801,28.60358-110.70799-12.83002-152.14259
      	c-23.10361-23.1084-53.3887-34.6582-83.67191-34.6582c-30.28519,0-60.57129,11.5498-83.67479,34.6582
      	c-46.21581,46.21579-46.21581,121.14259,0,167.3506c23.1035,23.1084,53.3896,34.66599,83.67091,34.66599
      	c24.02338,0,48.03317-7.2998,68.47559-21.83588l61.81439,61.81049c2.61722,2.61621,6.8985,2.61621,9.51559,0l18.5108-18.51459
      	C466.65417,428.83395,466.65417,424.54785,464.03796,421.93066z M305.72159,376.34668c-22.6192,0-43.88281-8.81061-59.88191-24.8067
      	c-15.9912-15.99612-24.8027-37.26273-24.8027-59.88281c0-22.62299,8.81151-43.8847,24.8076-59.8808
      	c15.9942-15.99609,37.25781-24.8076,59.88089-24.8076c22.62012,0,43.88672,8.81151,59.88281,24.8076
      	c33.01761,33.0166,33.01761,86.74219,0,119.76361C349.61218,367.53607,328.34167,376.34668,305.72159,376.34668z"></path>
      <path fill="#606060" d="M135.54477,233.61327l32.97661-63.5c6.4687,2.5508,13.4863,4.00191,20.8486,4.00191
      	c9.27249,0,18.00879-2.27141,25.7569-6.21681l10.66789,17.0215c5.961-4.47069,12.1983-8.3877,18.6553-11.73039l-11.8945-18.9698
      	c8.59961-9.9873,13.83391-22.9482,13.83391-37.12789c0-31.4463-25.57811-57.0234-57.0195-57.0234
      	c-31.4472,0-57.02341,25.5771-57.02341,57.0234c0,16.1318,6.7588,30.68459,17.5625,41.0693l-34.5811,66.5762
      	c-3.9658-0.87401-8.0801-1.36911-12.3047-1.36911c-31.4414,0-57.0234,25.5761-57.0234,57.01849
      	c0,31.44632,25.582,57.02832,57.0234,57.02832c27.22661,0,50.0274-19.19531,55.6582-44.74701l13.7325,0.93451
      	c-0.10649-7.35052,0.37691-14.7041,1.4765-21.98431l-14.7451-1.00879C156.49208,255.34277,147.78407,242.14447,135.54477,233.61327z
      	 M189.36998,87.60638c16.25389,0,29.48149,13.2315,29.48149,29.4854c0,16.25489-13.2276,29.48629-29.48149,29.48629
      	c-16.2588,0-29.4863-13.2314-29.4863-29.48629C159.88368,100.83788,173.11118,87.60638,189.36998,87.60638z M103.02328,309.87296
      	c-16.2578,0-29.4814-13.22748-29.4814-29.4863c0-16.25391,13.22359-29.48138,29.4814-29.48138
      	c16.2598,0,29.4873,13.22748,29.4873,29.48138C132.51057,296.64548,119.28307,309.87296,103.02328,309.87296z"></path>
      <polygon fill="#606060" points="342.16397,231.88567 305.72546,268.32806 269.28796,231.88567 245.95888,255.21677 
      	282.39636,291.65427 245.95888,328.09567 269.28796,351.42578 305.72546,314.98828 342.16397,351.42578 365.49399,328.09567 
      	329.05649,291.65427 365.49399,255.21677 "></polygon>
      </svg>
      
          