
            <!--?xml version="1.0" encoding="utf-8"?-->
      
      <!-- Generator: Adobe Illustrator 21.0.2, SVG Export Plug-In . SVG Version: 6.00 Build 0)  -->
      <svg version="1.1" id="Layer_1" xmlns="http://www.w3.org/2000/svg" xmlns:xlink="http://www.w3.org/1999/xlink" x="0px" y="0px" width="512px" height="512px" viewBox="0 0 512 512" enable-background="new 0 0 512 512" xml:space="preserve">
      <path fill="#ffffff" d="M428.78519,134.00014h-94.28278v-27.45459c0-15.7578-12.77972-28.54539-28.5444-28.54539h-99.9227
      	c-15.758,0-28.54559,12.7876-28.54559,28.54539v27.45459H83.2c-10.5671,0-19.2,8.6328-19.2,19.19971v162.58281
      	c0,7.73288,6.2842,14.017,14.0171,14.017h146.94202v-18.5625c0-6.35132,5.1749-11.5192,11.5204-11.5192h39.04439
      	c6.36029,0,11.52042,5.16788,11.52042,11.5192v18.5625h146.9386c7.7171,0,14.0025-6.27731,14.01709-13.99432V153.19984
      	C448,142.63293,439.35229,134.00014,428.78519,134.00014z M205.4897,106.54555c0-0.29539,0.2498-0.54539,0.54559-0.54539h99.92271
      	c0.2952,0,0.5444,0.25,0.5444,0.54539v27.45459H205.4897V106.54555z"></path>
      <path fill="#ffffff" d="M287.04431,358.60764v13.43991c0,6.3522-5.16013,11.52029-11.52042,11.52029h-39.04439
      	c-6.34541,0-11.5204-5.16809-11.5204-11.52029v-13.43991H78.0171c-5.175,0-9.9819-1.56018-14.0171-4.2149v60.40732
      	c0,10.55231,8.6329,19.19998,19.2,19.19998h345.58521c10.56711,0,19.21481-8.64767,19.21481-19.19998v-60.40732
      	c-4.02829,2.65472-8.85001,4.2149-14.01709,4.2149H287.04431z"></path>
      <path fill="#ffffff" d="M246.2034,318.60303c-1.9126,0-3.4431,1.55231-3.4431,3.45691v39.16479
      	c0,1.90561,1.5305,3.45792,3.4431,3.45792h19.59671c1.89368,0,3.44299-1.55231,3.44299-3.45792v-39.16479
      	c0-1.9046-1.54932-3.45691-3.44299-3.45691H246.2034z"></path>
      </svg>
      
          