
            <!--?xml version="1.0" encoding="utf-8"?-->
      
      <!-- Generator: Adobe Illustrator 21.0.2, SVG Export Plug-In . SVG Version: 6.00 Build 0)  -->
      <svg version="1.1" id="Layer_1" xmlns="http://www.w3.org/2000/svg" xmlns:xlink="http://www.w3.org/1999/xlink" x="0px" y="0px" width="512px" height="512px" viewBox="0 0 512 512" enable-background="new 0 0 512 512" xml:space="preserve">
      <path fill="#95abff" d="M460,92.0001h-44v24c0,26.46728-21.53271,47.99999-48,47.99999s-48-21.53271-48-47.99999v-24H192v24
      	c0,26.46728-21.53271,47.99999-48,47.99999s-48-21.53271-48-47.99999v-24H52c-4.41846,0-8,3.58173-8,8v360c0,4.41827,3.58154,8,8,8
      	h408c4.41846,0,8-3.58173,8-8v-360C468,95.58183,464.41846,92.0001,460,92.0001z M436,436.00009H76v-240h360V436.00009z"></path>
      <path fill="#95abff" d="M144.00003,44.0001h-0.00006C130.74515,44.0001,120,54.74526,120,68.00008v48.00005
      	c0,13.2548,10.74515,23.99996,23.99997,23.99996h0.00006c13.25481,0,23.99997-10.74515,23.99997-23.99997V68.00008
      	C168,54.74526,157.25485,44.0001,144.00003,44.0001z"></path>
      <path fill="#95abff" d="M368.00003,44.0001h-0.00006C354.74515,44.0001,344,54.74526,344,68.00008v48.00005
      	c0,13.2548,10.74515,23.99996,23.99997,23.99996h0.00006c13.25482,0,23.99997-10.74515,23.99997-23.99997V68.00008
      	C392,54.74526,381.25485,44.0001,368.00003,44.0001z"></path>
      </svg>
      
          