
            <!--?xml version="1.0" encoding="utf-8"?-->
      
      <!-- Generator: Adobe Illustrator 21.0.2, SVG Export Plug-In . SVG Version: 6.00 Build 0)  -->
      <svg version="1.1" id="Layer_1" xmlns="http://www.w3.org/2000/svg" xmlns:xlink="http://www.w3.org/1999/xlink" x="0px" y="0px" width="512px" height="512px" viewBox="0 0 512 512" enable-background="new 0 0 512 512" xml:space="preserve">
      <path fill="#00b9cc" d="M412,116.00059h-60V84.0001c0-22.09143-17.90869-40-40-40H200c-22.09131,0-40,17.90857-40,40v32.00049h-60
      	c-6.62744,0-12,5.37256-12,11.99999v27.99951h336v-27.99951C424,121.37315,418.62744,116.00059,412,116.00059z M192,87.99912
      	c0-6.62744,5.37256-12,12-12h104c6.62744,0,12,5.37256,12,12v28.00146H192V87.99912z"></path>
      <polygon fill="#00b9cc" points="376,468.00009 136,468.00009 112,192.00009 400,192.00009 "></polygon>
      </svg>
      
          