
            <!--?xml version="1.0" encoding="utf-8"?-->
      
      <!-- Generator: Adobe Illustrator 21.0.2, SVG Export Plug-In . SVG Version: 6.00 Build 0)  -->
      <svg version="1.1" id="Layer_1" xmlns="http://www.w3.org/2000/svg" xmlns:xlink="http://www.w3.org/1999/xlink" x="0px" y="0px" width="512px" height="512px" viewBox="0 0 512 512" enable-background="new 0 0 512 512" xml:space="preserve">
      <path fill="#95abff" d="M453.54532,138.28415v-20.52916c0-3.95975-5.45032-4.07697-8.33109-4.61372
      	c-3.96954-0.73938-7.95395-1.3992-11.9472-1.99705c-12.10843-1.8133-24.30249-3.06461-36.52216-3.81509
      	c-0.2749-0.01676-0.55008-0.02898-0.82498-0.04553v-8.92974h-50.88v8.94529c-12.29346,0.76289-24.55322,2.09335-36.70972,4.07898
      	c-15.71585,2.56752-31.26443,6.21897-46.41821,11.12384c-1.97775,0.64024-3.94873,1.30168-5.91206,1.98463
      	c-15.21616-5.29404-30.87346-9.2851-46.7244-12.14518c-14.76428-2.66403-29.70009-4.35085-44.67738-5.19087
      	c-14.62801-0.82054-29.30011-0.83608-43.93275-0.11983c-12.81893,0.62762-25.61504,1.80978-38.32565,3.59077
      	c-4.37346,0.61308-8.73713,1.29754-13.08515,2.07084c-1.57112,0.27893-7.33338,1.24009-8.50594,1.69682
      	c-1.36952,0.53394-2.29424,1.8975-2.29424,3.36585v20.52917L44,138.94124v274.63629l188.0659-8.54834
      	c0.67133,2.38864,3.12549,3.94339,5.21147,4.97443c3.38866,1.67542,7.1765,2.54291,10.90195,3.05472
      	c8.26486,1.1351,17.57611,0.79349,25.35025-2.50867c2.46475-1.04709,5.61758-2.72147,6.40433-5.52048L468,413.57755V138.94124
      	L453.54532,138.28415z M239.03989,376.2063c-21.88879-5.87604-44.34171-9.57513-66.93233-11.32101
      	c-22.67854-1.75302-45.51196-1.57959-68.1687,0.41562c-9.54555,0.84055-19.06496,2.00412-28.5245,3.53717v-231.3248v-8.6707
      	c17.96579-2.99939,36.17184-4.6652,54.37457-5.195c23.53392-0.68446,47.17303,0.59986,70.42662,4.35075
      	c13.10947,2.11465,26.10225,5.00996,38.82436,8.82323V376.2063H239.03989z M436.58533,137.51328v231.3248
      	c-18.88809-3.06146-38.01785-4.70114-57.14572-5.07385c-23.23944-0.45236-46.53549,1.00256-69.50168,4.61734
      	c-12.45135,1.95959-24.80389,4.55679-36.97803,7.82474V136.82155c23.42328-7.02023,47.69989-10.93313,72.07999-12.53192v105.50421
      	l25.44-21.2l25.44,21.2V124.27408c17.15463,1.06475,31.25232,2.99687,40.66544,4.5685V137.51328z"></path>
      <path fill="#95abff" d="M106.28116,174.00352c9.12902-1.91658,56.99883-10.6636,103.09227,5.37248l5.49756,1.91264
      	c1.45219,0.50526,2.96901-0.57301,2.96901-2.11061v-17.71422c0-0.95117-0.60208-1.79807-1.50035-2.11061l-0.00061-0.0002
      	c-51.38214-17.87665-104.32257-8.21501-114.41277-6.09712l-1.03062,0.21634c-1.03476,0.21715-1.77564,1.12976-1.77564,2.18703
      	v17.09528c0,1.41888,1.30521,2.47859,2.69381,2.18704L106.28116,174.00352z"></path>
      <path fill="#95abff" d="M101.92627,206.16533l-1.03062,0.21634c-1.03476,0.21715-1.77564,1.12976-1.77564,2.18704v17.09528
      	c0,1.41888,1.30521,2.47849,2.69381,2.18692l4.46735-0.93794c9.12902-1.91658,57.00095-10.66258,103.09175,5.37299l5.49808,1.91275
      	c1.4523,0.50516,2.96901-0.5731,2.96901-2.11072v-17.71442c0-0.95117-0.60208-1.79807-1.50046-2.11061l0,0
      	C164.95639,194.38631,112.01646,204.04745,101.92627,206.16533z"></path>
      <path fill="#95abff" d="M101.92627,259.07529l-1.03062,0.21634c-1.03476,0.21713-1.77564,1.12976-1.77564,2.18704v17.09515
      	c0,1.41901,1.30521,2.47861,2.69381,2.18704l4.46735-0.93796c9.12902-1.91656,57.00095-10.6636,103.09175,5.3725l5.49808,1.91263
      	c1.4523,0.50528,2.96901-0.573,2.96901-2.1106v-17.71442c0-0.95117-0.60208-1.79816-1.50046-2.11063l0,0
      	C164.95801,247.29626,112.01646,256.9574,101.92627,259.07529z"></path>
      <path fill="#95abff" d="M216.33904,318.08176c-51.38214-17.87604-104.32257-8.215-114.41277-6.09702l-1.03062,0.21634
      	c-1.03476,0.21713-1.77564,1.12976-1.77564,2.18701v17.09518c0,1.41898,1.30521,2.47858,2.69381,2.18704l4.46735-0.93796
      	c9.12902-1.9166,56.99883-10.6637,103.09227,5.3725l5.49756,1.91254c1.45219,0.50525,2.96901-0.573,2.96901-2.11063v-17.7142
      	c0-0.95108-0.60208-1.79797-1.50035-2.1105L216.33904,318.08176z"></path>
      </svg>
      
          