
            <!--?xml version="1.0" encoding="utf-8"?-->
      
      <!-- Generator: Adobe Illustrator 21.0.2, SVG Export Plug-In . SVG Version: 6.00 Build 0)  -->
      <svg version="1.1" id="Layer_1" xmlns="http://www.w3.org/2000/svg" xmlns:xlink="http://www.w3.org/1999/xlink" x="0px" y="0px" width="512px" height="512px" viewBox="0 0 512 512" enable-background="new 0 0 512 512" xml:space="preserve">
      <path fill="#606060" d="M412.02539,306.15048l-29.9512-29.93558c-12.35739-12.37302-34.33588-25.42381-51.12299-30.39061
      	l-76.16211-22.46091c-7.09959-2.084-17.40239-11.09959-20.42-17.832l-60.875-136.1329
      	c-4.9648-11.1132-18.01169-16.0937-29.08589-11.1132c-11.1035,4.9609-16.07811,17.9785-11.10941,29.0761l60.875,136.1485
      	c8.19341,18.31641,28.8867,36.4101,48.1485,42.09961l76.16791,22.46091c9.78131,2.88089,25.23828,12.08008,32.44141,19.27148
      	l29.9649,29.957l-43.46103,43.45709H456v-118.5704L412.02539,306.15048z"></path>
      <path fill="#606060" d="M439.06641,417.37711H94.6328V72.9396c0-9.31672-7.62276-16.9395-16.9395-16.9395h-4.7499
      	C63.6172,56.0001,56,63.6271,56,72.9396v366.12097c0,9.3125,7.6172,16.93951,16.9434,16.93951h366.12302
      	c9.31348,0,16.93359-7.62012,16.93359-16.93359v-4.75189C456,424.9845,448.37701,417.37711,439.06641,417.37711z"></path>
      </svg>
      
          