
            <!--?xml version="1.0" encoding="utf-8"?-->
      
      <!-- Generator: Adobe Illustrator 21.0.2, SVG Export Plug-In . SVG Version: 6.00 Build 0)  -->
      <svg version="1.1" id="Layer_1" xmlns="http://www.w3.org/2000/svg" xmlns:xlink="http://www.w3.org/1999/xlink" x="0px" y="0px" width="512px" height="512px" viewBox="0 0 512 512" enable-background="new 0 0 512 512" xml:space="preserve">
      <path id="XMLID_407_" fill="#454646" d="M434.1705,179.7205c-8.09064,0.84425-33.48926,4.47176-64.85321-8.39761
      	c-34.16196-14.01747-83.12479-78.00047-121.99065-88.41454c-19.61102-5.25476-34.06577-5.63267-43.59064-4.71851
      	c-1.69724-6.37067-6.5789-11.70737-13.40338-13.53598c-10.1606-2.72253-20.60559,3.30637-23.3286,13.46877L74.32172,424.01773
      	c-2.723,10.16238,3.30817,20.60608,13.46877,23.32858c10.1606,2.72253,20.60558-3.30637,23.32859-13.46875l36.75816-137.18335
      	c21.50772-5.83707,35.22749,3.32111,40.472,6.32086c31.86981,18.2337,63.04146,72.83292,124.00751,89.16873
      	c32.8746,8.80872,60.28983,7.664,66.56332,6.08853c1.33218-0.33438,2.34961-1.3501,2.70203-2.66531l56.577-211.14816
      	C438.75754,182.37465,437.58426,179.36427,434.1705,179.7205z M243.62877,168.40277
      	c15.72597,9.13789,32.57066,23.92528,49.14647,38.83318l-17.88538,66.7491c-16.56802-14.88657-33.39427-29.60353-49.18161-38.70201
      	L243.62877,168.40277z M324.62924,315.87341l-14.89468,55.58771c-19.98615-6.81305-36.49295-18.3382-51.08487-30.97363
      	l17.06982-63.70541C276.60202,277.577,308.05298,308.12915,324.62924,315.87341z M294.49023,206.72874l15.20761-56.7556
      	c17.68073,15.7451,34.4429,30.40831,49.32281,37.54974l-15.66208,58.45172
      	C327.58893,238.10878,295.56613,207.6949,294.49023,206.72874z M344.35721,248.14099
      	c24.18405,11.40512,43.9606,10.18469,54.4357,9.78897l-17.9176,66.86948c-12.52997,0.67319-33.37524,0.47275-54.44534-9.75302
      	L344.35721,248.14099z M258.10254,108.49259l-15.43582,57.60725c-5.57788-3.11029-19.69637-12.53017-56.61542-11.87317
      	l15.22398-56.81669C234.38205,94.00001,252.51706,105.1357,258.10254,108.49259z M153.25343,276.62997l14.03244-52.36975
      	c31.80078-0.70782,51.05714,8.616,56.64622,11.75818l-15.5244,57.93787
      	C204.61784,291.01312,184.81783,270.67148,153.25343,276.62997z"></path>
      </svg>
      
          