
            <!--?xml version="1.0" encoding="utf-8"?-->
      
      <!-- Generator: Adobe Illustrator 21.0.2, SVG Export Plug-In . SVG Version: 6.00 Build 0)  -->
      <svg version="1.1" id="Layer_1" xmlns="http://www.w3.org/2000/svg" xmlns:xlink="http://www.w3.org/1999/xlink" x="0px" y="0px" width="512px" height="512px" viewBox="0 0 512 512" enable-background="new 0 0 512 512" xml:space="preserve">
      <polygon fill="#bee5a3" points="189.14146,323.56619 245.6796,349.96622 343.56644,66.59149 "></polygon>
      <path fill="#bee5a3" d="M275.05792,318.36655c26.71277-8.1503,46.15851-32.98328,46.15851-62.36646
      	c0-13.86716-4.35788-26.70003-11.74139-37.26711L275.05792,318.36655z"></path>
      <path fill="#bee5a3" d="M248.27502,191.27507c-32.37039,3.83293-57.49541,31.3244-57.49541,64.72502
      	c0,8.30826,1.62038,16.23257,4.4536,23.54111L248.27502,191.27507z"></path>
      <path fill="#bee5a3" d="M98.90853,256.00009c0-86.75821,70.33323-157.09247,157.09146-157.09247
      	c15.2832,0,30.03354,2.22539,44.00134,6.30003l18.47757-30.75789C298.88715,67.70762,277.88324,64.0001,256,64.0001
      	c-106.0421,0-192,85.95789-192,192c0,64.31647,31.65787,121.20789,80.20456,156.04932l17.54112-30.3829
      	C123.5875,353.00769,98.90853,307.39182,98.90853,256.00009z"></path>
      <path fill="#bee5a3" d="M353.69537,90.72479l-11.6911,33.84171c42.79538,28.06675,71.08325,76.43296,71.08325,131.43359
      	c0,51.39172-24.68292,97.0076-62.83716,125.66641l17.54114,30.3829C416.3382,377.20798,448,320.32443,448,256.00009
      	C448,185.64119,410.13284,124.15794,353.69537,90.72479z"></path>
      </svg>
      
          