
            <!--?xml version="1.0" encoding="utf-8"?-->
      
      <!-- Generator: Adobe Illustrator 21.0.2, SVG Export Plug-In . SVG Version: 6.00 Build 0)  -->
      <svg version="1.1" id="Layer_1" xmlns="http://www.w3.org/2000/svg" xmlns:xlink="http://www.w3.org/1999/xlink" x="0px" y="0px" width="512px" height="512px" viewBox="0 0 512 512" enable-background="new 0 0 512 512" xml:space="preserve">
      <rect x="330.57635" y="202.33313" fill="#ffffff" width="61.27979" height="38.3"></rect>
      <rect x="120.14385" y="202.33313" fill="#ffffff" width="61.27979" height="38.3"></rect>
      <rect x="120.14385" y="133.29233" fill="#ffffff" width="61.27979" height="38.3"></rect>
      <rect x="225.3596" y="133.29233" fill="#ffffff" width="61.28081" height="38.3"></rect>
      <path fill="#ffffff" d="M428.35001,64.5001H83.65c-10.52091,0-19.15,8.6173-19.15,19.15V428.3501
      	c0,10.53268,8.62909,19.14999,19.15,19.14999h344.70001c10.54349,0,19.14999-8.61731,19.14999-19.14999V83.6501
      	C447.5,73.1174,438.89349,64.5001,428.35001,64.5001z M189.08325,378.70786c0,4.2132-3.44791,7.6601-7.65961,7.6601h-61.27979
      	c-4.21169,0-7.66061-3.4469-7.66061-7.6601v-38.30002c0-4.2132,3.44891-7.6601,7.66061-7.6601h61.27979
      	c4.2117,0,7.65961,3.4469,7.65961,7.6601V378.70786z M189.08325,309.67252c0,4.21307-3.44791,7.6601-7.65961,7.6601h-61.27979
      	c-4.21169,0-7.66061-3.44702-7.66061-7.6601V271.3725c0-4.2132,3.44891-7.6601,7.66061-7.6601h61.27979
      	c4.2117,0,7.65961,3.4469,7.65961,7.6601V309.67252z M189.08325,240.63312c0,4.21371-3.44791,7.66011-7.65961,7.66011h-61.27979
      	c-4.21169,0-7.66061-3.4464-7.66061-7.66011v-38.29999c0-4.21321,3.44891-7.65961,7.66061-7.65961h61.27979
      	c4.2117,0,7.65961,3.4464,7.65961,7.65961V240.63312z M189.08325,171.59233c0,4.21321-3.44791,7.66011-7.65961,7.66011h-61.27979
      	c-4.21169,0-7.66061-3.4469-7.66061-7.66011v-38.3c0-4.2132,3.44891-7.6601,7.66061-7.6601h61.27979
      	c4.2117,0,7.65961,3.4469,7.65961,7.6601V171.59233z M294.29999,378.70786c0,4.2132-3.44498,7.6601-7.65958,7.6601H225.3596
      	c-4.21461,0-7.65961-3.4469-7.65961-7.6601v-38.30002c0-4.2132,3.44499-7.6601,7.65961-7.6601h61.28081
      	c4.2146,0,7.65958,3.4469,7.65958,7.6601V378.70786z M294.29999,309.67252c0,4.21307-3.44498,7.6601-7.65958,7.6601H225.3596
      	c-4.21461,0-7.65961-3.44702-7.65961-7.6601V271.3725c0-4.2132,3.44499-7.6601,7.65961-7.6601h61.28081
      	c4.2146,0,7.65958,3.4469,7.65958,7.6601V309.67252z M294.29999,240.63312c0,4.21371-3.44498,7.66011-7.65958,7.66011H225.3596
      	c-4.21461,0-7.65961-3.4464-7.65961-7.66011v-38.29999c0-4.21321,3.44499-7.65961,7.65961-7.65961h61.28081
      	c4.2146,0,7.65958,3.4464,7.65958,7.65961V240.63312z M294.29999,171.59233c0,4.21321-3.44498,7.66011-7.65958,7.66011H225.3596
      	c-4.21461,0-7.65961-3.4469-7.65961-7.66011v-38.3c0-4.2132,3.44499-7.6601,7.65961-7.6601h61.28081
      	c4.2146,0,7.65958,3.4469,7.65958,7.6601V171.59233z M399.51675,378.70786c0,4.2132-3.44891,7.6601-7.66061,7.6601h-61.27979
      	c-4.2117,0-7.65961-3.4469-7.65961-7.6601v-38.30002c0-4.2132,3.44791-7.6601,7.65961-7.6601h61.27979
      	c4.2117,0,7.66061,3.4469,7.66061,7.6601V378.70786z M399.51675,309.67252c0,4.21307-3.44891,7.6601-7.66061,7.6601h-61.27979
      	c-4.2117,0-7.65961-3.44702-7.65961-7.6601V271.3725c0-4.2132,3.44791-7.6601,7.65961-7.6601h61.27979
      	c4.2117,0,7.66061,3.4469,7.66061,7.6601V309.67252z M399.51675,240.63312c0,4.21371-3.44891,7.66011-7.66061,7.66011h-61.27979
      	c-4.2117,0-7.65961-3.4464-7.65961-7.66011v-38.29999c0-4.21321,3.44791-7.65961,7.65961-7.65961h61.27979
      	c4.2117,0,7.66061,3.4464,7.66061,7.65961V240.63312z M399.51675,171.59233c0,4.21321-3.44891,7.66011-7.66061,7.66011h-61.27979
      	c-4.2117,0-7.65961-3.4469-7.65961-7.66011v-38.3c0-4.2132,3.44791-7.6601,7.65961-7.6601h61.27979
      	c4.2117,0,7.66061,3.4469,7.66061,7.6601V171.59233z"></path>
      <rect x="120.14385" y="271.3725" fill="#ffffff" width="61.27979" height="38.29999"></rect>
      <rect x="330.57635" y="133.29233" fill="#ffffff" width="61.27979" height="38.3"></rect>
      </svg>
      
          