
            <!--?xml version="1.0" encoding="utf-8"?-->
      
      <!-- Generator: Adobe Illustrator 21.0.2, SVG Export Plug-In . SVG Version: 6.00 Build 0)  -->
      <svg version="1.1" id="Layer_1" xmlns="http://www.w3.org/2000/svg" xmlns:xlink="http://www.w3.org/1999/xlink" x="0px" y="0px" width="512px" height="512px" viewBox="0 0 512 512" enable-background="new 0 0 512 512" xml:space="preserve">
      <path fill="#ffffff" d="M411.1514,126.2174c-46.85651,0-84.8389,35.9062-84.8389,80.20307v28.65921H29.9453
      	c-7.706,0-13.9453,6.24359-13.9453,13.9502v13.94531c0,7.70612,6.2393,13.94531,13.9453,13.94531h25.1768
      	c7.706,0,13.9502,6.24368,13.9502,13.94968v5.8125c0,7.69733-6.24421,13.95023-13.9502,13.95023H41.5654
      	c-7.706,0-13.9502,6.24368-13.9502,13.94528v37.1861c0,7.70602,6.2442,13.94971,13.9502,13.94971h8.1328V349.5675
      	c0-7.7066,6.2442-13.95023,13.9454-13.95023h1.9404c7.6973,0,13.9502,6.24362,13.9502,13.95023v26.14648h18.9756V349.5675
      	c0-7.7066,6.24799-13.95023,13.9492-13.95023h1.9414c7.6963,0,13.9453,6.24362,13.9453,13.95023v26.14648h8.1328
      	c7.7061,0,13.9492-6.24368,13.9492-13.94971v-37.1861c0-7.7016-6.2431-13.94528-13.9492-13.94528h-13.5566
      	c-7.7061,0-13.9502-6.2529-13.9502-13.95023v-5.8125c0-7.70599,6.24409-13.94968,13.9502-13.94968H326.3125v28.66849
      	c0,44.2876,37.98239,80.19382,84.8389,80.19382c46.8613,0,84.8486-35.90622,84.8486-80.19382v-99.1685
      	C496,162.1236,458.0127,126.2174,411.1514,126.2174z M463.84381,291.2735c0,31.5-23.5918,57.04691-52.69241,57.04691
      	c-29.09479,0-52.69238-25.54691-52.69238-57.04691v-70.53761c0-31.5092,23.5976-57.0468,52.69238-57.0468
      	c29.10062,0,52.69241,25.5376,52.69241,57.0468V291.2735z"></path>
      </svg>
      
          