
            <!--?xml version="1.0" encoding="utf-8"?-->
      
      <!-- Generator: Adobe Illustrator 21.0.2, SVG Export Plug-In . SVG Version: 6.00 Build 0)  -->
      <svg version="1.1" id="Layer_1" xmlns="http://www.w3.org/2000/svg" xmlns:xlink="http://www.w3.org/1999/xlink" x="0px" y="0px" width="512px" height="512px" viewBox="0 0 512 512" enable-background="new 0 0 512 512" xml:space="preserve">
      <path fill="#606060" d="M282.8707,250.53496c-2.47598-12.62753-13.61743-22.18417-26.95952-22.18417
      	c-2.07735,0-4.09436,0.24869-6.03648,0.68684l-11.89542-7.74872l-20.52924,41.47897l13.4881,4.48624
      	c4.34808,9.45984,13.88887,16.06778,24.97304,16.06778c4.77534,0,9.25954-1.22961,13.17827-3.38092l120.31387,40.01645
      	L282.8707,250.53496z M255.91118,272.29291c-9.08191,0-16.46936-7.38553-16.46936-16.46056
      	c0-9.07494,7.38745-16.46249,16.46936-16.46249c9.07503,0,16.4536,7.38756,16.4536,16.46249
      	C272.36478,264.90738,264.98621,272.29291,255.91118,272.29291z"></path>
      <path fill="#606060" d="M255.91118,220.12054c15.79048,0,29.61217,10.43288,34.14476,25.27498l82.88681,54.01384
      	c4.90268-13.38361,7.61148-27.81119,7.61148-42.89017c0-68.90918-55.8631-124.76837-124.7713-124.76837v88.37761
      	C255.82336,220.12843,255.86772,220.12054,255.91118,220.12054z"></path>
      <path fill="#606060" d="M268.90887,64.48768v-8.17506h8.86978c3.95822,0,5.36539-1.39928,5.36539-5.36246v-9.12243
      	c0-3.96308-1.40717-5.36044-5.36539-5.36044H234.3141c-3.96307,0-5.36145,1.39735-5.36145,5.36044v9.12243
      	c0,3.96318,1.39838,5.36246,5.36145,5.36246h8.8698v8.16718C143.12897,71.07783,64,154.2784,64,256.00412
      	c0,106.0401,85.96083,191.99597,192,191.99597c106.03525,0,192-85.95587,192-191.99597
      	C448,154.31001,368.92337,71.13503,268.90887,64.48768z M263.3342,411.21854v-23.26968h-14.66446v23.26968
      	c-79.99245-3.71246-144.16673-67.89078-147.8882-147.88022h23.00433v-14.66849h-23.00433
      	c3.71742-79.98346,67.89575-144.16177,147.88426-147.88416v22.92824h14.66446v-22.92824
      	c79.98849,3.72237,144.16583,67.89472,147.88818,147.88416h-23.19278v14.66849h23.19278
      	C407.49609,343.32382,343.32272,407.50214,263.3342,411.21854z"></path>
      </svg>
      
          