
            <!--?xml version="1.0" encoding="utf-8"?-->
      
      <!-- Generator: Adobe Illustrator 21.0.2, SVG Export Plug-In . SVG Version: 6.00 Build 0)  -->
      <svg version="1.1" id="Layer_1" xmlns="http://www.w3.org/2000/svg" xmlns:xlink="http://www.w3.org/1999/xlink" x="0px" y="0px" width="512px" height="512px" viewBox="0 0 512 512" style="enable-background:new 0 0 512 512;" xml:space="preserve">
      
      
      
      <polygon fill="#95abff" points="94.4,335.5 132.3,353 132.3,406.5 252,468 252.1,330.7 132.4,275.7 "></polygon>
      <polygon fill="#95abff" points="418.2,335.7 380.3,275.8 260.9,330.7 260.8,468 380.2,406.7 380.3,353.2 "></polygon>
      <polygon fill="#95abff" points="295.4,175.9 275.3,195.1 275.3,222.3 284.3,226.5 322.4,188.4 "></polygon>
      <polygon fill="#95abff" points="321.6,243.7 380.2,270.7 418.3,232.8 359.6,205.6 "></polygon>
      <polygon fill="#95abff" points="217.9,175.9 189.9,188.7 227.8,226.5 236.7,222.4 236.7,194.4 "></polygon>
      <polygon fill="#95abff" points="152.6,205.8 93.7,232.7 133.1,270.6 190.6,243.8 "></polygon>
      <polygon fill="#95abff" points="330.5,119.7 330.5,139 385.3,139 265.7,258.6 265.7,80.9 304.4,119.7 318.1,106.1 256,44 193.9,106.1 
      	207.6,119.7 246.3,81 246.3,258.6 126.7,139 181.5,139 181.5,119.7 93.7,119.7 93.7,207.5 113,207.5 113,152.7 256,295.7 399,152.7 
      	399,207.5 418.3,207.5 418.3,119.7 "></polygon>
      </svg>
      
          