
            <!--?xml version="1.0" encoding="utf-8"?-->
      
      <!-- Generator: Adobe Illustrator 21.0.2, SVG Export Plug-In . SVG Version: 6.00 Build 0)  -->
      <svg version="1.1" id="Layer_1" xmlns="http://www.w3.org/2000/svg" xmlns:xlink="http://www.w3.org/1999/xlink" x="0px" y="0px" width="512px" height="512px" viewBox="0 0 512 512" enable-background="new 0 0 512 512" xml:space="preserve">
      <path fill="#bee5a3" d="M209.52641,241.38469l43.48264-43.47879l-1.28337-1.2858L132.32231,77.22109
      	c-10.14972-10.15356-26.76318-10.15356-36.91634,0l-6.56296,6.56003c-10.15559,10.15367-10.15559,26.76904,0,36.92271
      	l119.40195,119.39901L209.52641,241.38469z"></path>
      <polygon fill="#bee5a3" points="421.34653,376.50266 395.50516,362.96118 302.81494,270.27301 281.89594,291.19455 
      	374.58847,383.88718 388.12054,409.72421 424.11609,427.26279 438.88321,412.49374 "></polygon>
      <path fill="#bee5a3" d="M351.81616,80.50136c-13.86856,13.87251-18.98535,33.17669-15.3696,51.06461L145.44925,322.56137
      	c-21.58028-6.12097-45.74601-0.69919-62.73255,16.28333c-14.58159,14.58109-20.63535,34.44974-18.19099,53.43063l36.2304-36.22351
      	l43.53255,11.65906l11.6635,43.53699l-36.2304,36.22403c18.98344,2.44629,38.85442-3.60303,53.43501-18.18359
      	c16.98503-16.99191,22.4073-41.15329,16.28392-62.73358L380.436,175.55498c17.88751,3.61627,37.19159-1.50104,51.0647-15.3696
      	c22.00107-22.00562,22.00107-57.6784,0-79.68402C409.49457,58.49968,373.8222,58.49968,351.81616,80.50136z M425.71585,132.36337
      	l-22.04169,22.03716l-30.96808-3.49046l-16.58386-26.38818l10.2908-29.42167L395.8367,84.8074l26.38818,16.58395
      	L425.71585,132.36337z"></path>
      </svg>
      
          