
            <!--?xml version="1.0" encoding="utf-8"?-->
      
      <!-- Generator: Adobe Illustrator 21.0.2, SVG Export Plug-In . SVG Version: 6.00 Build 0)  -->
      <svg version="1.1" id="Layer_1" xmlns="http://www.w3.org/2000/svg" xmlns:xlink="http://www.w3.org/1999/xlink" x="0px" y="0px" width="512px" height="512px" viewBox="0 0 512 512" enable-background="new 0 0 512 512" xml:space="preserve">
      <path fill="#525252" d="M44,222.19679v182.48524h363.34378V222.19679H44z M158.85695,313.8446
      	c0-35.51868,27.72153-64.55229,62.70537-66.67189v12.68608c-15.07397,2.07611-27.47047,11.82928-28.29704,27.80161
      	c-0.36009,6.95837,1.15831,13.75897,5.34351,19.4249c4.65482,6.3017,11.7883,9.97681,18.75389,13.15219
      	c6.37177,2.90469,15.00528,5.47849,18.9416,11.75244c3.78093,6.02625,0.38319,14.12845-5.68878,16.99799
      	c-6.59064,3.11469-15.09964,2.17676-21.80246-0.06433c-3.18007-1.06326-6.21262-2.44641-9.12592-4.1044
      	c-2.36812-1.34775-5.94402-4.40845-7.58089-0.58237c-1.27959,2.99097-0.85594,7.55301-0.54309,10.6842
      	c0.37766,3.77982,1.9572,5.61658,5.24666,7.47733c7.38295,4.17636,16.39041,5.58984,24.75252,5.58984v12.49487h8.76579
      	c-28.98555,2.04025-56.6407-15.56497-67.05612-42.70294C160.34637,330.15729,158.85695,322.00803,158.85695,313.8446z
      	 M234.32381,380.08673v-13.77255c13.08267-3.36652,23.54366-12.76871,25.30797-26.63879
      	c0.87805-6.90277-0.01224-13.93677-3.66756-19.94324c-3.50134-5.75348-9.00536-9.52798-14.85612-12.61032
      	c-8.72424-4.59619-31.36177-9.9509-25.40475-24.27466c2.69432-6.47852,10.75716-7.28656,16.83052-6.56683
      	c2.99225,0.35458,5.88466,1.228,8.68407,2.32535c2.91783,1.14377,5.52873,3.01587,8.42445,4.13522
      	c3.59737,1.39056,3.96133-2.24811,4.12347-4.98206c0.18016-3.03763,0.59526-7.13-0.50642-10.03812
      	c-1.1077-2.92392-4.70087-4.17874-7.38013-5.1929c-3.76755-1.42609-7.58568-2.14249-11.5555-2.66904v-12.24835
      	c25.00044,3.23157,46.58308,20.95456,54.65822,44.82779c8.23669,24.35074,1.42651,51.9425-17.13953,69.68842
      	C261.61523,371.90216,248.35815,378.26923,234.32381,380.08673z"></path>
      <path fill="#525252" d="M104.65179,107.31814V210.1555h115.80933c-4.97549-29.59111,10.88589-59.57944,38.21518-72.01552
      	c7.40591-3.37003,15.4213-5.35353,23.54224-5.84604v12.68811c-8.16464,1.09003-16.27689,4.22153-21.72501,10.63512
      	c-5.34622,6.29366-7.1859,14.43082-6.48248,22.53937c0.68803,7.93127,4.68292,14.89018,10.91608,19.79562
      	c7.01706,5.52235,15.67865,8.02286,23.44022,12.20334h30.72739c-3.34671-9.89049-12.01151-15.53036-21.04666-19.75084
      	c-7.20703-3.36652-20.5957-6.70032-22.35135-15.90865c-2.21671-11.62645,10.60757-14.38972,19.29221-12.82724
      	c4.66098,0.83856,9.11685,2.83447,13.2471,5.09377c1.3746,0.75192,3.39557,2.26755,4.92926,1.01657
      	c1.38397-1.12885,1.22672-4.06497,1.2912-5.64299c0.1803-4.41286,0.85376-9.89706-3.48395-12.44447
      	c-4.84094-2.84296-10.51175-4.00824-15.99695-4.70959V132.7337c27.28766,3.52521,50.21622,24.2672,56.43802,51.07182
      	c2.00659,8.64467,2.22864,17.60353,0.74847,26.34998h67.23096v79.6479H468V107.31814H104.65179z"></path>
      </svg>
      
          