
            <!--?xml version="1.0" encoding="utf-8"?-->
      
      <!-- Generator: Adobe Illustrator 21.0.2, SVG Export Plug-In . SVG Version: 6.00 Build 0)  -->
      <svg version="1.1" id="Layer_1" xmlns="http://www.w3.org/2000/svg" xmlns:xlink="http://www.w3.org/1999/xlink" x="0px" y="0px" width="512px" height="512px" viewBox="0 0 512 512" enable-background="new 0 0 512 512" xml:space="preserve">
      <path fill="#ffffff" d="M199.99951,55.99961c-79.52881,0-144,64.47095-144,144s64.47119,144,144,144s144-64.47095,144-144
      	S279.52832,55.99961,199.99951,55.99961z M199.99951,295.9996c-52.93457,0-96-43.06543-96-96s43.06543-95.99999,96-95.99999
      	s96,43.06542,96,95.99999S252.93408,295.9996,199.99951,295.9996z"></path>
      <path fill="#ffffff" d="M464.48535,419.23056L356.51074,311.25571c-6.18555,8.68481-13.10938,16.87109-20.74658,24.50854
      	c-7.63721,7.63721-15.82373,14.56128-24.5083,20.74658l107.97461,107.97461c4.68652,4.68628,12.28418,4.68628,16.9707,0
      	l28.28418-28.28442C469.17139,431.51474,469.17139,423.91684,464.48535,419.23056z"></path>
      </svg>
      
          