
            <!--?xml version="1.0" encoding="utf-8"?-->
      
      <!-- Generator: Adobe Illustrator 21.0.2, SVG Export Plug-In . SVG Version: 6.00 Build 0)  -->
      <svg version="1.1" id="Layer_1" xmlns="http://www.w3.org/2000/svg" xmlns:xlink="http://www.w3.org/1999/xlink" x="0px" y="0px" width="512px" height="512px" viewBox="0 0 512 512" enable-background="new 0 0 512 512" xml:space="preserve">
      <path fill="#ffffff" d="M371.20001,294.40009c-20.84506,0-39.72238,8.33484-53.55994,21.81122l-130.3302-67.97365
      	c0.95131-4.33131,1.49013-8.8224,1.49013-13.43889c0-3.25362-0.32762-6.42624-0.80721-9.54373l144.37592-72.76477
      	c9.64636,10.49602,23.44644,17.10982,38.8313,17.10982c29.1651,0,52.79999-23.63489,52.79999-52.8
      	S400.36511,64.0001,371.20001,64.0001c-29.16513,0-52.80002,23.6349-52.80002,52.8c0,2.77502,0.28125,5.48486,0.69272,8.14243
      	l-146.85786,67.61743C160.8349,180.19385,144.5451,172.39876,126.4,172.39876c-34.46249,0-62.4,27.9375-62.4,62.40001
      	c0,34.46246,27.93752,62.39999,62.4,62.39999c16.90752,0,32.22234-6.75397,43.46253-17.67633l126.38875,75.06512
      	c-1.18121,5.35266-1.85129,10.90265-1.85129,16.61255c0,42.42239,34.37759,76.79999,76.80002,76.79999S448,413.6225,448,371.2001
      	S413.62241,294.40009,371.20001,294.40009z"></path>
      </svg>
      
          