
            <!--?xml version="1.0" encoding="utf-8"?-->
      
      <!-- Generator: Adobe Illustrator 21.0.2, SVG Export Plug-In . SVG Version: 6.00 Build 0)  -->
      <svg version="1.1" id="Layer_1" xmlns="http://www.w3.org/2000/svg" xmlns:xlink="http://www.w3.org/1999/xlink" x="0px" y="0px" width="512px" height="512px" viewBox="0 0 512 512" enable-background="new 0 0 512 512" xml:space="preserve">
      <polygon fill="#606060" points="355.9834,84.00012 155.99609,84.00012 79.25488,216.00012 116.23438,216.00012 174.38965,115.96967 
      	337.5918,115.96967 419.01807,256.00012 337.5918,396.03064 174.38965,396.03064 116.23438,296.00012 174.86572,295.95447 
      	205.12207,244.0697 249.41992,352.72864 295.05322,275.01501 307.68604,295.49646 367.97998,295.49646 367.97998,263.42773 
      	326.03369,263.42773 299.37744,207.05676 256.59766,280.28821 210.48535,172.20471 156.78906,263.88574 44,263.88574 44,295.95837 
      	79.25488,296.00012 155.99609,428.00012 355.9834,428.00012 456,256.00012 "></polygon>
      </svg>
      
          