
            <!--?xml version="1.0" encoding="utf-8"?-->
      
      <!-- Generator: Adobe Illustrator 21.0.2, SVG Export Plug-In . SVG Version: 6.00 Build 0)  -->
      <svg version="1.1" id="Layer_1" xmlns="http://www.w3.org/2000/svg" xmlns:xlink="http://www.w3.org/1999/xlink" x="0px" y="0px" width="512px" height="512px" viewBox="0 0 512 512" enable-background="new 0 0 512 512" xml:space="preserve">
      <rect x="152.5" y="265.75006" fill="#606060" width="207.00391" height="100.50006"></rect>
      <path fill="#606060" d="M391.00391,109.00006v45.75002c0,16.5-13.49997,29.99997-29.99805,29.99997h-11.99893
      	c-16.50696,0-30.00302-13.49997-30.00302-29.99997v-45.75001H187.75392v45.75001c0,16.5-13.49997,29.99997-29.99997,29.99997
      	h-12.00005c-16.50002,0-29.99998-13.49997-29.99998-29.99997v-45.75001H64v339.00003h384V109.00006H391.00391z M423.25003,422.50006
      	H88.74996V208.37512h334.50006V422.50006z"></path>
      <path fill="#606060" d="M133.75395,80.50011c0-9.0748,7.42522-16.50001,16.5-16.50001h2.99994
      	c9.0748,0,16.50002,7.42521,16.50002,16.50001v70.49997c0,9.0748-7.42522,16.50002-16.50002,16.50002h-2.99994
      	c-9.07478,0-16.5-7.42522-16.5-16.50002V80.50011z"></path>
      <path fill="#606060" d="M337.00787,80.50011c0-9.0748,7.41736-16.50001,16.49606-16.50001h2.99603
      	c9.07489,0,16.50696,7.42521,16.50696,16.50001v70.49997c0,9.0748-7.43207,16.50002-16.50696,16.50002h-2.99603
      	c-9.0787,0-16.49606-7.42522-16.49606-16.50002V80.50011z"></path>
      </svg>
      
          