
            <!--?xml version="1.0" encoding="utf-8"?-->
      
      <!-- Generator: Adobe Illustrator 21.0.2, SVG Export Plug-In . SVG Version: 6.00 Build 0)  -->
      <svg version="1.1" id="Layer_1" xmlns="http://www.w3.org/2000/svg" xmlns:xlink="http://www.w3.org/1999/xlink" x="0px" y="0px" width="512px" height="512px" viewBox="0 0 512 512" enable-background="new 0 0 512 512" xml:space="preserve">
      <path fill="#bee5a3" d="M419.94669,80.04591c-11.1167,0-22.0639,3.16711-31.6582,9.15906
      	c-17.71533,11.05762-28.29517,30.04645-28.29517,50.79168c0,13.20386,4.29956,25.41748,11.5589,35.33411l-26.48712,45.40613
      	c-2.9743-0.45581-6.01984-0.69238-9.11963-0.69238c-18.55829,0-35.17242,8.47754-46.1781,21.76172l-38.01001-13.72595
      	c-2.0285-31.23718-28.07208-56.0343-59.8125-56.0343c-33.05713,0-59.95105,26.896-59.95105,59.95581
      	c0,11.23926,3.11517,21.76221,8.51837,30.76172l-36.08612,50.57422c-3.99463-0.84155-8.13208-1.29089-12.37341-1.29089
      	c-33.05841,0-59.95337,26.89355-59.95337,59.9502c0,33.06055,26.89496,59.95728,59.95337,59.95728
      	c33.05872,0,59.95398-26.89673,59.95398-59.95728c0-11.23975-3.11554-21.76294-8.51929-30.76282l36.08545-50.57324
      	c3.99426,0.84155,8.13116,1.29077,12.37207,1.29077c17.10352,0,32.5451-7.21008,43.47821-18.73608l41.12769,14.85181
      	c3.95496,29.25488,29.07397,51.88574,59.39471,51.88574c33.05969,0,59.95569-26.89563,59.95569-59.95471
      	c0-12.41125-3.79169-23.95325-10.27649-33.53003l27.37622-46.9303c2.28064,0.2644,4.5954,0.41516,6.9458,0.41516
      	c13.31586,0,25.92163-4.30627,36.45453-12.45312c10.06903-7.78796,17.54535-18.81921,21.05164-31.06189
      	c1.64691-5.74841,2.44788-11.1272,2.44788-16.44165C479.90073,106.93971,453.0054,80.04591,419.94669,80.04591z M92.05264,404.00055
      	c-17.64587,0-31.99969-14.35376-31.99969-32.00354c0-17.6427,14.35382-31.99646,31.99969-31.99646
      	c17.64648,0,32.00031,14.35376,32.00031,31.99646C124.05295,389.64679,109.69913,404.00055,92.05264,404.00055z
      	 M191.94479,263.99884c-17.64496,0-31.99805-14.35388-31.99805-31.99707c0-17.64917,14.35309-32.00293,31.99805-32.00293
      	c17.64563,0,32.00195,14.35376,32.00195,32.00293C223.94675,249.64496,209.59042,263.99884,191.94479,263.99884z
      	 M335.94547,311.99884c-17.64496,0-31.99872-14.35242-31.99872-32.00037c0-17.64734,14.35376-31.99963,31.99872-31.99963
      	s32.00128,14.35229,32.00128,31.99963C367.94675,297.64642,353.59042,311.99884,335.94547,311.99884z M450.57968,148.74176
      	c-3.83258,13.38159-16.03845,23.25781-30.633,23.25781c-17.64587,0-31.99969-14.35376-31.99969-32.00293
      	c0-11.44531,6.08832-21.42657,15.14874-27.08202c4.90662-3.06433,10.65167-4.9151,16.85095-4.9151
      	c17.64648,0,32.00031,14.35382,32.00031,31.99712C451.94699,143.04791,451.38113,145.94415,450.57968,148.74176z"></path>
      </svg>
      
          