
            <!--?xml version="1.0" encoding="utf-8"?-->
      
      <!-- Generator: Adobe Illustrator 21.0.2, SVG Export Plug-In . SVG Version: 6.00 Build 0)  -->
      <svg version="1.1" id="Layer_1" xmlns="http://www.w3.org/2000/svg" xmlns:xlink="http://www.w3.org/1999/xlink" x="0px" y="0px" width="512px" height="512px" viewBox="0 0 512 512" enable-background="new 0 0 512 512" xml:space="preserve">
      <path fill="#c396e0" d="M456,56.0001H337.43259l43.45511,43.4512l-49.21878,49.21479
      	c-7.67572,7.67191-23.79681,18.52541-33.81833,22.7442l-70.25198,29.6035c-17.62401,7.414-37.02831,26.0703-45.14061,43.39059
      	L133.4541,349.0079c-5.15919,11.02148-0.4131,24.1348,10.60249,29.28317c3.02051,1.41992,6.1963,2.09772,9.3213,2.09772
      	c8.2793,0,16.211-4.69531,19.9561-12.68359l49.00391-104.625c3.55759-7.59381,14.62399-18.23241,22.34859-21.46881l70.26559-29.6093
      	c15.45901-6.51959,36.03522-20.3672,47.85452-32.20709l49.20898-49.21091L456,174.56459V56.0001z"></path>
      <path fill="#c396e0" d="M439.06641,417.37711H94.6328V72.9396c0-9.31672-7.62276-16.9395-16.9395-16.9395h-4.7499
      	C63.6172,56.0001,56,63.6271,56,72.9396v366.12097c0,9.3125,7.6172,16.93951,16.9434,16.93951h366.12302
      	c9.31348,0,16.93359-7.62012,16.93359-16.93359v-4.75189C456,424.9845,448.37701,417.37711,439.06641,417.37711z"></path>
      </svg>
      
          