<?xml version="1.0" encoding="utf-8"?>
<!-- Generator: Adobe Illustrator 21.0.0, SVG Export Plug-In . SVG Version: 6.00 Build 0)  -->
<svg version="1.1" xmlns="http://www.w3.org/2000/svg" xmlns:xlink="http://www.w3.org/1999/xlink" x="0px" y="0px" width="1920px"
	 height="1080px" viewBox="0 0 1920 1080" enable-background="new 0 0 1920 1080" xml:space="preserve">
<g id="BG">
	<rect fill="#006BBA" width="1920" height="1080"/>
</g>
<g id="Illustration">
	<g>
		<path opacity="0.2" fill="#004999" d="M1817.2,719.6l-2,2.3l-3.1,0l-3,0l-6,3l-1.4,0.7l-1.6,0l-24.9-0.2l-2.2,0l-1.7-1.3l-5.8-4.5
			c-204.2,7.2-478.3-7.6-777.4-46.2c-442-57-818-150.5-989.2-237.8v317.9c60.3,12.5,122.1,24.8,185.2,36.7l2.2-8.6l10.9-12.6
			l24.9-18.1l10.3,10.4l12.1,5.7l13.7,2.7l24.3,21l-4.3,17.1C485,845,704.5,879.1,932.4,908.5c351.4,45.3,686.2,74.9,987.6,89.3
			V708.4c-30.7,3.7-64.4,6.6-100.7,8.7L1817.2,719.6z M349.9,764.5l-5.4,6.1l-2.4,2.7l-2.4-2.7l-1.4-1.5l-0.3,0.1l-1.4,0.6l-1.3-0.7
			l-0.4-0.2l-0.2,0.2l-1,0.8l-1.3-0.1l-2.6-0.2l-1.5-0.1l-0.9-1.2l-0.6-0.9l-2.3-1.2l-0.7-0.4l-0.4-0.6l-5.8-8.3l-0.6-0.9l0-1.1
			l0.3-8.5l0.1-1.6l1.3-0.9l4.1-2.9l0.6-0.5l0.8-0.1l9.7-1.3l1.8-0.2l1.2,1.4l2.9,3.5l4.4-0.2l2.6-0.1l0.7,2.5l2.2,7.6l0.1,0.2
			l0,0.3l1.1,8l0.2,1.5L349.9,764.5z"/>
		<path opacity="0.2" fill="#004999" d="M1034.9,186.2c-370.3-47.8-722.1-84-1035.8-106v195.3c178.5-46.3,579-43.2,1038.5,16.1
			c365.4,47.1,685.7,119.2,882.5,192.1V320.4C1648.8,272.1,1349.9,226.8,1034.9,186.2z"/>
	</g>
	<g>
		<path opacity="0.8" fill="#82D8F9" d="M1317.8,515c-0.1-0.4-0.2-0.9-0.3-1.3c-0.1-0.4-0.3-0.7-0.5-1.1c-0.1-0.2-0.2-0.4-0.3-0.5
			l-0.3-0.4l-0.6-0.9c-0.4-0.6-0.8-1-1.2-1.5c-1.6-1.8-3.3-3-5-4.1c-3.4-2.2-6.8-3.9-10.2-5.5c-6.9-3.1-13.8-5.5-20.8-7.8
			c-14-4.5-28.1-8.2-42.2-11.6c-28.3-6.8-56.8-12.5-85.3-17.7c-3.6-0.7-7.3-1.3-10.9-1.9c0,0.8,0,1.5,0,2.3
			c3.5,0.7,6.9,1.4,10.4,2.2c28.3,6,56.6,12.7,84.4,20.6c13.9,4,27.7,8.3,41.2,13.3c6.7,2.5,13.3,5.2,19.6,8.4
			c3.1,1.6,6.1,3.3,8.7,5.2c1.3,0.9,2.5,2,3.3,2.9c0.2,0.2,0.4,0.5,0.5,0.7c0,0.1,0.1,0.2,0.2,0.3l0.1,0.1c0,0,0,0,0,0.1
			c0,0-0.1,0.1-0.1,0.1c0,0,0,0,0,0.1l-0.1,0.1c-0.1,0.1-0.2,0.1-0.2,0.2c-0.2,0.1-0.4,0.3-0.7,0.4c-1,0.6-2.5,1.2-3.9,1.7
			c-3,1-6.4,1.7-9.8,2.2c-6.9,1.1-13.9,1.6-21.1,2c-14.2,0.7-28.6,0.6-43,0.2c-28.8-0.8-57.6-2.7-86.4-5.1
			c-57.6-4.8-115.1-11.5-172.4-19c-57.3-7.6-114.5-16.2-171.4-26.6c-28.4-5.2-56.7-10.8-84.7-17.6c-14-3.4-27.9-7-41.5-11.4
			c-6.8-2.2-13.5-4.6-19.8-7.4c-3.1-1.4-6.2-3-8.9-4.7c-1.3-0.9-2.5-1.8-3.3-2.7c-0.2-0.2-0.4-0.4-0.5-0.6c-0.1-0.1-0.1-0.2-0.2-0.2
			l-0.1-0.1c0,0,0-0.1,0-0.1c0,0,0-0.1-0.1-0.1c0,0,0,0,0,0l0.1-0.1c0.1-0.1,0.1-0.1,0.2-0.2c0.2-0.2,0.4-0.3,0.6-0.5
			c1-0.7,2.4-1.4,3.9-1.9c3-1.1,6.4-2,9.8-2.7c6.9-1.4,14-2.3,21.1-3c14.3-1.3,28.7-1.9,43.2-2.1c28.9-0.4,57.9,0.5,86.8,2.1
			c4.5,0.2,8.9,0.5,13.4,0.8c0.1-0.2,0.2-0.3,0.4-0.5c0.2-0.6,0.3-1.1,0.5-1.7c-4.7-0.4-9.4-0.8-14.1-1.2c-28.9-2.4-57.9-4.4-87-5.2
			c-14.5-0.4-29.1-0.5-43.8,0.2c-7.3,0.4-14.7,0.9-22.1,2.1c-3.7,0.6-7.4,1.4-11.3,2.6c-1.9,0.7-3.9,1.4-5.9,2.7
			c-0.5,0.4-1,0.7-1.5,1.1l-0.8,0.7l-0.4,0.4c-0.1,0.1-0.3,0.3-0.4,0.4c-0.3,0.3-0.5,0.6-0.7,0.9c-0.2,0.3-0.5,0.8-0.7,1.2
			c-0.4,0.8-0.7,1.8-0.9,2.7c-0.1,1-0.1,2,0.1,2.8c0.1,0.4,0.2,0.9,0.3,1.3c0.1,0.4,0.3,0.7,0.4,1.1c0.1,0.2,0.2,0.4,0.2,0.5
			l0.3,0.5l0.6,0.9c0.4,0.6,0.8,1,1.2,1.5c1.6,1.8,3.3,3.1,4.9,4.4c3.3,2.4,6.7,4.2,10.1,5.9c6.8,3.4,13.6,6.2,20.6,8.8
			c13.8,5.1,27.8,9.5,41.9,13.5c28.1,8,56.5,14.7,85,20.8c57,12.1,114.4,21.6,172.1,29.3c57.7,7.6,115.6,13.4,173.7,16.6
			c29.1,1.6,58.2,2.5,87.4,2.1c14.6-0.2,29.2-0.8,43.9-2.1c7.3-0.7,14.7-1.6,22.1-3.1c3.7-0.8,7.4-1.7,11.3-3.1
			c1.9-0.8,3.9-1.6,5.9-2.9c0.5-0.4,1-0.7,1.5-1.2l0.8-0.7l0.4-0.4c0.1-0.1,0.3-0.3,0.4-0.5c0.2-0.3,0.5-0.6,0.7-1
			c0.2-0.3,0.4-0.8,0.6-1.2c0.4-0.8,0.6-1.8,0.8-2.7C1318,516.8,1318,515.8,1317.8,515z M640.2,428C640.2,428,640.2,428,640.2,428
			c0-0.1,0-0.1,0-0.1C640.3,428,640.2,428,640.2,428z M1308.6,516.7c0,0,0-0.1,0-0.1C1308.6,516.6,1308.6,516.6,1308.6,516.7
			C1308.7,516.7,1308.6,516.7,1308.6,516.7z"/>
		<path opacity="0.8" fill="#00A6FB" d="M1546,539.8c-0.7-2-1.7-3.7-2.8-5.1c-2.2-2.9-4.7-5.2-7.3-7.3c-5.2-4.1-10.6-7.2-16.2-10.1
			c-11.1-5.7-22.5-10.4-34.1-14.6c-23.1-8.4-46.6-15.3-70.2-21.7c-47.2-12.7-94.9-23.1-142.8-32.6c-43.6-8.6-87.4-16.4-131.2-23.6
			c0.1,0.3,0.1,0.5,0.1,0.8c43.7,7.6,87.2,15.9,130.6,25.3c23.8,5.1,47.6,10.6,71.2,16.5c23.7,5.8,47.2,12.1,70.5,19
			c23.3,6.9,46.5,14.4,69,23.3c11.2,4.5,22.3,9.3,32.8,15.1c5.2,2.9,10.2,6,14.6,9.6c2.1,1.8,4.1,3.7,5.5,5.7c0.7,1,1.2,2,1.5,2.9
			c0.3,0.9,0.3,1.7,0.3,2.3c-0.1,0.7-0.4,1.4-1,2.1c-0.5,0.8-1.3,1.5-2.3,2.3c-1.9,1.5-4.3,2.7-6.8,3.8c-5.1,2.2-10.8,3.7-16.6,5
			c-11.6,2.5-23.5,4-35.5,5c-24,2.1-48.3,2.6-72.6,2.6c-48.5-0.1-97.1-2.5-145.7-5.7c-48.5-3.3-97-7.7-145.4-12.7
			c-24.2-2.5-48.4-5.3-72.6-8.1c-24.2-2.9-48.3-5.9-72.4-9.1c-24.1-3.2-48.2-6.5-72.3-10.1c-24.1-3.6-48.1-7.2-72.2-11.1
			c-48-7.7-96-16.2-143.7-25.6c-47.7-9.5-95.2-19.9-142.1-32.4c-23.4-6.4-46.7-13.2-69.4-21.5c-11.3-4.2-22.5-8.7-33-14.1
			c-5.2-2.7-10.3-5.7-14.7-9.1c-2.2-1.7-4.2-3.6-5.6-5.5c-0.7-0.9-1.3-1.9-1.6-2.8c-0.3-0.9-0.4-1.6-0.4-2.3
			c0.1-0.7,0.3-1.4,0.8-2.2c0.5-0.8,1.3-1.6,2.2-2.4c1.9-1.5,4.3-2.9,6.8-4.1c5.1-2.3,10.8-4,16.6-5.5c11.6-2.8,23.5-4.6,35.5-6
			c24.1-2.7,48.4-3.9,72.7-4.5c24.3-0.6,48.7-0.5,73.1,0c24.4,0.5,48.7,1.4,73.1,2.7c47.4,2.4,94.7,6,141.9,10.5
			c0.1-0.1,0.3-0.3,0.4-0.4c0-0.1,0.1-0.2,0.1-0.3c-47.4-4.9-94.8-9.1-142.3-12.4c-48.7-3.3-97.5-5.7-146.3-5.7
			c-24.4,0-48.9,0.5-73.4,2.7c-12.2,1.1-24.5,2.6-36.7,5.2c-6.1,1.4-12.2,3-18.3,5.6c-3,1.3-6,2.8-9,5.1c-1.4,1.2-2.9,2.5-4.1,4.2
			c-1.2,1.7-2.2,3.9-2.5,6.2c-0.3,2.3,0,4.7,0.7,6.7c0.7,2,1.7,3.7,2.8,5.3c2.2,3,4.7,5.4,7.2,7.5c5.1,4.2,10.5,7.5,16,10.6
			c11,6.1,22.4,11,33.8,15.6c11.5,4.5,23.1,8.7,34.7,12.6c11.6,3.9,23.4,7.5,35.1,11c23.5,6.9,47.2,13.3,70.9,19.1
			c23.8,5.9,47.6,11.4,71.5,16.5c23.9,5.2,47.9,10,71.9,14.6c24,4.6,48.1,9,72.2,13c48.2,8.2,96.5,15.4,145,21.9
			c24.2,3.2,48.5,6.2,72.8,9c24.3,2.8,48.6,5.3,72.9,7.7c48.7,4.6,97.4,8.4,146.3,10.9c48.8,2.4,97.8,3.8,146.8,2.7
			c24.5-0.6,49-1.8,73.5-4.6c12.3-1.4,24.5-3.2,36.7-6.2c6.1-1.5,12.2-3.3,18.2-6c3-1.4,6-3,8.9-5.4c1.4-1.2,2.8-2.6,4-4.3
			c1.2-1.8,2.1-3.9,2.4-6.3C1547.1,544.1,1546.7,541.8,1546,539.8z"/>
		<g>
			<path fill="#2AB6F4" d="M833.4,448.3c-0.4-0.4-0.7-0.9-1-1.3c0,0,0-0.1-0.1-0.1c-0.2,1.8-0.4,3.6-0.6,5.4c-2.4,2.1-4,5.5-4.1,9.3
				c-0.1,3.8,1.3,7.2,3.6,9.4c0.1,1.3,0.1,2.6,0.2,3.8c0.1-0.1,0.3-0.3,0.4-0.4c0.4-0.5,0.9-0.9,1.4-1.3c0.1-0.1,0.2-0.1,0.2,0
				c0.1,0.1,0.1,0.2,0,0.2l0,0l-0.3,0.3c-0.1,0.1-0.1,0.1-0.2,0.2l-0.2,0.2c-0.1,0.1-0.2,0.2-0.3,0.3l-0.3,0.3
				c-0.4,0.5-0.8,1-1.1,1.5c-0.4,0.5-0.7,1-1,1.6c-0.1,0.1-0.1,0.2-0.2,0.3c46.8,8,93.7,14.9,140.8,21.2
				c33.5,4.4,67.1,8.5,100.7,12.1c2.1-1.7,4.1-3.6,5.7-5.7c0.9-1.2,1.7-2.5,2.3-3.8c0.6-1.3,1-2.8,1.2-4.2c0.4-2.9-0.1-5.9-1.1-8.7
				c-1.1-2.8-2.7-5.5-4.6-7.9l0,0c-0.2-0.2-0.2-0.6,0.1-0.8c0.2-0.2,0.5-0.2,0.7,0c2.4,2.2,4.3,4.9,5.6,7.9c1.4,3,2,6.4,1.6,9.8
				c-0.4,3.4-2,6.5-4.1,9c-1.5,1.8-3.3,3.3-5.3,4.6c13.2,1.4,26.5,2.7,39.7,4c8.1-21.8,10.7-44.5,8.3-66.3c-0.1,0.1-0.2,0.3-0.2,0.4
				c-0.6,1.1-1.3,2.2-2.1,3.2l-0.1,0.2l-0.2,0.2l-0.3,0.4c-0.1,0.1-0.2,0.2-0.3,0.4l-0.3,0.4l-0.1,0.1l-0.1,0.1l-0.2,0.2l-0.3,0.3
				c-0.2,0.2-0.5,0.4-0.7,0.6c-0.1,0.1-0.2,0.1-0.2,0c-0.1-0.1-0.1-0.2,0-0.2l0,0c0.2-0.2,0.4-0.4,0.7-0.7l0.3-0.3l0.2-0.2l0.1-0.1
				l0.1-0.1l0.3-0.4c0.1-0.1,0.2-0.2,0.3-0.4l0.3-0.4l0.1-0.2l0.1-0.2c0.8-1,1.4-2,2-3.1c0.6-1.1,1.1-2.2,1.6-3.4
				c0.4-1.2,0.8-2.4,1.1-3.6c0.3-1.2,0.5-2.4,0.7-3.7c0.2-1.2,0.2-2.5,0.2-3.7c0-2.5-0.2-5-0.7-7.4c-0.5-2.4-1.3-4.8-2.4-7.1
				c-0.5-1.1-1.1-2.2-1.8-3.3s-1.4-2.1-2.2-3c-0.8-0.9-1.7-1.8-2.6-2.7c-0.9-0.8-1.9-1.6-3-2.2c-0.3-0.2-0.6-0.4-0.9-0.5
				c-0.1,0.3-0.1,0.7-0.2,1c-0.2,1.3-0.6,2.5-1,3.7c-0.4,1.2-0.9,2.4-1.5,3.5c-0.6,1.1-1.2,2.2-2,3.3l-0.1,0.2
				c0,0.1-0.1,0.1-0.1,0.2l-0.3,0.4l-0.3,0.4l-0.3,0.4l-0.3,0.4l-0.1,0.2l-0.2,0.2l-0.6,0.7c-0.1,0.1-0.2,0.1-0.2,0
				c-0.1-0.1-0.1-0.2,0-0.2l0,0l0.6-0.7l0.1-0.2l0.1-0.2l0.3-0.4l0.3-0.4l0.3-0.4l0.3-0.4c0-0.1,0.1-0.1,0.1-0.2l0.1-0.2
				c0.2-0.3,0.3-0.5,0.5-0.8l0.5-0.8c0.2-0.3,0.3-0.6,0.5-0.8c0-0.1,0.1-0.1,0.1-0.2l0.1-0.2l0.2-0.4c0.6-1.1,1-2.3,1.4-3.5
				c0.4-1.2,0.7-2.4,0.9-3.6c0.2-1.2,0.4-2.5,0.4-3.7c0-1.2,0-2.5-0.2-3.7c-0.2-1.2-0.4-2.5-0.7-3.7c-0.3-1.2-0.8-2.4-1.3-3.5
				c-1-2.3-2.4-4.4-4-6.3c-0.8-0.9-1.7-1.8-2.6-2.7c-0.9-0.8-1.9-1.6-3-2.3c-1-0.7-2.1-1.3-3.3-1.9c-1.1-0.5-2.3-1-3.5-1.4
				c-1.2-0.4-2.4-0.7-3.7-0.9l-0.9-0.1l-0.9-0.1l-0.9-0.1l-0.9,0h0c-0.1,0-0.2-0.1-0.2-0.2c0-0.1,0.1-0.2,0.2-0.2
				c2.5,0,5.1,0.4,7.5,1.1c1.5,0.4,2.9,1,4.3,1.7c-12.7-18.3-29.6-33.8-50.1-44.9c0.1,0.5,0.2,0.9,0.3,1.4c0.1,0.6,0.2,1.3,0.3,1.9
				c0,0.1-0.1,0.2-0.1,0.2c-0.1,0-0.2-0.1-0.2-0.1l0,0l-0.1-0.5c0-0.1,0-0.2,0-0.2l0-0.2c0-0.2-0.1-0.3-0.1-0.5l-0.1-0.5
				c-0.2-0.6-0.3-1.2-0.5-1.8c-0.2-0.6-0.5-1.1-0.7-1.7c-0.1-0.1-0.1-0.3-0.2-0.4l-0.2-0.4l-0.2-0.4c-0.1-0.1-0.2-0.3-0.3-0.4
				c-0.4-0.5-0.7-1-1.2-1.4c-0.4-0.4-0.9-0.9-1.4-1.2c-0.5-0.4-1-0.7-1.5-1c-0.3-0.2-0.5-0.3-0.8-0.4c-0.3-0.1-0.6-0.3-0.8-0.4
				c-2.3-0.9-4.8-1.2-7.2-1c-1.2,0.1-2.4,0.4-3.6,0.9c-1.1,0.4-2.2,1.1-3.1,1.9l0,0c-0.1,0.1-0.2,0.1-0.2,0c-0.1-0.1-0.1-0.2,0-0.2
				c0.4-0.5,0.9-0.9,1.5-1.2c0.5-0.3,1-0.6,1.5-0.8c-0.1-0.1-0.2-0.3-0.2-0.4l-0.1-0.2l-0.1-0.1l-0.1-0.1l-0.2-0.2
				c-0.1-0.1-0.1-0.1-0.2-0.2c-0.2-0.3-0.4-0.6-0.7-0.8c-0.2-0.3-0.5-0.5-0.8-0.8c-0.3-0.2-0.6-0.5-0.8-0.7
				c-0.3-0.2-0.6-0.4-0.9-0.5l-0.2-0.1c-0.1,0-0.2-0.1-0.2-0.1c-0.1,0-0.2-0.1-0.2-0.1l-0.1,0l-0.1,0c-0.3-0.1-0.7-0.2-1-0.3
				c-0.4-0.1-0.7-0.1-1.1-0.1c-0.4,0-0.7,0-1.1,0c-0.4,0-0.7,0.1-1.1,0.2c-0.7,0.1-1.4,0.3-2.1,0.6c-0.3,0.1-0.7,0.3-1,0.4
				c-0.2,0.1-0.3,0.2-0.5,0.2c-0.2,0.1-0.3,0.2-0.5,0.3l0,0c-0.1,0-0.2,0-0.2-0.1c0-0.1,0-0.2,0-0.2c0.3-0.2,0.6-0.4,1-0.6
				c0.1-0.1,0.2-0.1,0.3-0.1c-20.5-5.6-41.4-6.4-61.5-3.1c0.4,0.3,0.9,0.7,1.3,1l0.3,0.3c0.1,0.1,0.2,0.2,0.3,0.3
				c0.2,0.2,0.4,0.4,0.6,0.5l0.3,0.3c0.1,0.1,0.2,0.2,0.3,0.3l0.5,0.6c0.1,0.1,0.1,0.2,0,0.2c-0.1,0.1-0.2,0.1-0.2,0l0,0l-0.6-0.6
				c-0.1-0.1-0.2-0.2-0.3-0.3l-0.3-0.3c-0.2-0.2-0.4-0.4-0.6-0.5c-0.1-0.1-0.2-0.2-0.3-0.3l-0.3-0.2c-0.8-0.7-1.7-1.3-2.6-1.8
				c-0.9-0.5-1.8-1-2.8-1.4c-1-0.4-2-0.8-3-1c-1-0.3-2-0.5-3.1-0.6c-1-0.1-2.1-0.2-3.1-0.1c-1,0-2.1,0.1-3.1,0.3
				c-0.5,0.1-1,0.2-1.5,0.3c-0.5,0.1-1,0.2-1.5,0.4c-4,1.2-7.8,3.3-10.9,6.1c-1.6,1.4-3,3-4.1,4.8c-0.6,0.9-1.1,1.8-1.6,2.7
				c-0.1,0.2-0.2,0.5-0.3,0.7c-0.1,0.2-0.2,0.5-0.3,0.7c-0.1,0.2-0.2,0.5-0.3,0.7l-0.3,0.7l0,0c0,0.1-0.1,0.1-0.2,0.1
				c-0.1,0-0.1-0.1-0.1-0.2l0.3-0.8c0.1-0.3,0.2-0.5,0.3-0.8c0.1-0.2,0.2-0.5,0.3-0.7c0,0,0-0.1,0-0.1
				c-27.7,12.7-51.5,34.1-66.9,62.2c0.2-0.1,0.5-0.2,0.7-0.3c0.6-0.2,1.2-0.4,1.8-0.5c0.1,0,0.2,0,0.2,0.1c0,0.1,0,0.2-0.1,0.2v0
				c-0.6,0.2-1.2,0.4-1.7,0.6c-0.3,0.1-0.6,0.2-0.8,0.4c-0.3,0.1-0.5,0.3-0.8,0.4c-0.3,0.2-0.5,0.3-0.7,0.5
				c-0.2,0.2-0.5,0.4-0.7,0.6c-0.2,0.2-0.4,0.4-0.6,0.7l-0.1,0.2c0,0.1-0.1,0.1-0.1,0.2c0,0.1-0.1,0.1-0.1,0.2l-0.1,0.1l-0.1,0.1
				c-0.1,0.3-0.3,0.5-0.4,0.8c-0.1,0.3-0.2,0.6-0.2,0.9c-0.1,0.3-0.1,0.6-0.1,0.9c0,0.3,0,0.6,0,0.9c0,0.6,0.1,1.2,0.2,1.8
				c0.1,0.3,0.1,0.6,0.2,0.9c0,0.1,0.1,0.3,0.1,0.4c0,0.1,0.1,0.3,0.1,0.4l0,0c0,0.1,0,0.2-0.1,0.2c-0.1,0-0.2,0-0.2-0.1
				c-0.1-0.3-0.3-0.6-0.4-0.9c-0.1-0.3-0.2-0.6-0.3-0.9c0-0.1-0.1-0.2-0.1-0.4c-1.1,2.3-2.1,4.7-3.1,7.1c-2.3,5.8-4.3,11.6-5.8,17.5
				c0.8-0.6,1.5-1.1,2.4-1.5c0.1,0,0.2,0,0.2,0.1c0,0.1,0,0.2-0.1,0.2c-0.9,0.6-1.7,1.2-2.5,1.9c-0.4,0.3-0.8,0.7-1.2,1.1
				c-0.1,0.1-0.2,0.2-0.3,0.3l-0.3,0.3l-0.1,0.1l-0.1,0.1l-0.3,0.3c-0.7,0.8-1.3,1.6-1.8,2.6c-0.5,0.9-0.9,1.9-1.1,2.9
				c-0.2,1-0.3,2-0.3,3.1c0,0.5,0.1,1,0.1,1.6c0.1,0.5,0.2,1,0.3,1.5c0.3,1,0.6,2,1.1,2.9c0.2,0.5,0.5,0.9,0.7,1.4
				c0.1,0.2,0.3,0.5,0.4,0.7c0.1,0.2,0.3,0.4,0.4,0.6l0,0c0.1,0.1,0,0.2,0,0.2C833.6,448.4,833.5,448.4,833.4,448.3z M966.2,369.4
				c1.1-1.4,2.4-2.5,4-3.3c1.6-0.8,3.4-1.2,5.3-1c1.8,0.2,3.6,1,5,2.2c0.7,0.5,1.2,1.3,1.8,1.9c0.5,0.7,0.9,1.4,1.3,2.2
				c0.2,0.3,0,0.6-0.2,0.8c-0.2,0.1-0.5,0.1-0.6-0.1l-0.1-0.1c-0.6-0.5-1.1-1.1-1.7-1.6l-0.9-0.7c-0.3-0.2-0.6-0.5-0.9-0.7
				c-0.3-0.2-0.6-0.4-0.9-0.6c-0.3-0.2-0.7-0.3-1-0.4c-0.3-0.2-0.7-0.2-1-0.3c-0.3-0.1-0.7-0.2-1-0.2c-1.4-0.2-2.8,0.1-4.2,0.6
				c-1.4,0.5-2.8,1.3-4,2.2l0,0c-0.3,0.2-0.6,0.1-0.8-0.1C966,369.9,966,369.6,966.2,369.4z M881.8,462.6c0.8-3.3,2.7-6.3,5.1-8.5
				c2.4-2.3,5.2-4,8.2-5.2c0.3-0.1,0.6,0,0.7,0.3c0.1,0.3,0,0.6-0.2,0.7c-2.6,1.6-5.1,3.5-7.2,5.7c-1,1.1-1.9,2.3-2.7,3.6
				c-0.8,1.3-1.3,2.6-1.6,4c-0.7,2.8-0.5,5.9,0.2,8.8c0.8,2.9,2.1,5.8,3.7,8.3l0,0c0.2,0.3,0.1,0.6-0.2,0.8
				c-0.2,0.2-0.6,0.1-0.7-0.1c-2.2-2.5-3.7-5.3-4.8-8.5C881.3,469.3,881,465.9,881.8,462.6z"/>
			<g>
				<path fill="#2AB6F4" d="M834.9,497l0,0.1l-0.1,0.3c0,0.1-0.1,0.2-0.1,0.3c-0.1,0.3-0.2,0.7-0.3,1.1c-0.1,0.4-0.1,0.7-0.2,1.1
					c0,0.4-0.1,0.7-0.1,1.1c0,0.4,0,0.7,0.1,1.1l0,0.3c0,0.1,0,0.2,0.1,0.3c0,0.1,0,0.2,0.1,0.3l0,0.1l0,0.1c0.1,0.3,0.2,0.7,0.4,1
					c0.2,0.3,0.3,0.6,0.5,0.9c0.2,0.3,0.4,0.6,0.6,0.9c0.2,0.3,0.5,0.5,0.7,0.8c0.5,0.5,1.1,1,1.7,1.4c0.3,0.2,0.6,0.4,0.9,0.6
					c0.2,0.1,0.3,0.2,0.5,0.3c0.2,0.1,0.3,0.2,0.5,0.2l0,0c0.1,0,0.1,0.1,0.1,0.2c0,0.1-0.1,0.1-0.2,0.1c-0.4-0.1-0.7-0.3-1.1-0.4
					c-0.3-0.2-0.7-0.3-1-0.5c-0.1-0.1-0.2-0.1-0.4-0.2c0.4,1.3,0.8,2.5,1.3,3.8c18.4,2.9,36.8,5.7,55.3,8.4
					c24.1,3.5,48.2,6.9,72.3,10.1c24.1,3.2,48.3,6.3,72.4,9.1c18.3,2.2,36.6,4.2,54.9,6.2c-0.1-0.5-0.2-1-0.3-1.5
					c-0.1-0.2-0.1-0.4-0.2-0.7c-0.1-0.2-0.1-0.4-0.2-0.7c-0.1-0.2-0.2-0.4-0.2-0.7l-0.3-0.6l0,0c0-0.1,0-0.2,0.1-0.2
					c0.1,0,0.2,0,0.2,0.1l0.3,0.6c0.1,0.2,0.2,0.4,0.3,0.7c0.1,0.2,0.2,0.4,0.2,0.7c0.1,0.2,0.1,0.4,0.2,0.7
					c0.2,0.6,0.3,1.1,0.4,1.7c1.1,0.1,2.2,0.2,3.3,0.4c3-4.5,5.7-9.1,8.2-14c-46-3.3-91.9-8.2-137.6-14.2
					c-43.4-5.8-86.6-12.6-129.6-20.7c0,0,0,0,0,0c0,0.1-0.1,0.1-0.2,0.1c-0.6-0.1-1.3-0.2-1.9-0.5c-0.1,0-0.2-0.1-0.2-0.1
					c-0.5-0.1-0.9-0.2-1.4-0.3c0,0,0,0.1,0,0.1l-0.1,0.3L834.9,497z"/>
				<g>
					<path fill="#2AB6F4" d="M847.1,532.8c-0.1,0.6-0.3,1.3-0.3,1.9c-0.1,0.7-0.1,1.3,0,2c0,0.7,0.1,1.3,0.3,1.9
						c0.1,0.6,0.3,1.3,0.5,1.9c0.2,0.6,0.5,1.2,0.8,1.8c0.1,0.3,0.3,0.6,0.5,0.9c0.2,0.3,0.3,0.6,0.5,0.8c1.5,2.2,3.4,4,5.7,5.3
						c1.1,0.7,2.3,1.2,3.6,1.6c0.6,0.2,1.3,0.3,1.9,0.4c0.2,0,0.3,0,0.5,0.1c0.2,0,0.3,0,0.5,0.1l0.5,0l0.5,0l0,0
						c0.1,0,0.2,0.1,0.2,0.2c0,0.1-0.1,0.2-0.2,0.2H862c-0.2,0-0.3,0-0.5,0c-0.2,0-0.3,0-0.5,0c-0.2,0-0.3,0-0.5-0.1
						c-0.2,0-0.4-0.1-0.6-0.1c3,4.1,6.2,8,9.7,11.7c30.3,4.4,60.7,8.6,91.1,12.6c35.6,4.8,71.3,9.2,107,13.5
						c0.1-0.1,0.2-0.1,0.4-0.2c1.1-0.6,2.2-1.2,3.2-1.9c2-1.4,3.9-3.2,5.4-5.1c0.8-1,1.5-2,2.1-3.1c0.6-1.1,1.2-2.2,1.7-3.4
						c0.5-1.2,0.9-2.3,1.2-3.6c0.1-0.3,0.2-0.7,0.2-1c-0.5,0.2-1,0.4-1.5,0.5c-0.9,0.3-1.8,0.5-2.8,0.7c-0.9,0.2-1.9,0.2-2.8,0.2
						l-0.4,0c-0.1,0-0.2,0-0.4,0c-0.2,0-0.5,0-0.7,0l-0.4,0c-0.1,0-0.2,0-0.4,0l-0.7-0.1c-0.1,0-0.2-0.1-0.1-0.2
						c0-0.1,0.1-0.1,0.2-0.1l0,0l0.7,0c0.1,0,0.2,0,0.3,0l0.3,0c0.2,0,0.5,0,0.7,0c0.1,0,0.2,0,0.3,0l0.3,0c0.9,0,1.8-0.2,2.7-0.3
						c0.9-0.2,1.8-0.4,2.7-0.7c0.9-0.3,1.7-0.7,2.5-1.1c0.8-0.4,1.6-0.9,2.4-1.4c0.7-0.5,1.5-1.1,2.1-1.7c0.7-0.6,1.3-1.3,1.9-2
						c0.3-0.4,0.6-0.7,0.8-1.1c0-0.1,0.1-0.1,0.1-0.2c-17.7-1.8-35.4-3.6-53.1-5.7c-24.3-2.8-48.5-5.8-72.8-9
						c-39-5.2-78-10.9-116.8-17.2C847.3,532.2,847.2,532.5,847.1,532.8z"/>
					<path fill="#2AB6F4" d="M958.2,594.7c-20.7-2.8-41.4-5.6-62-8.5c8.1,5.4,16.9,10.1,26.3,13.9c2.2,0.9,4.4,1.7,6.5,2.5
						c-0.2-0.3-0.4-0.6-0.5-0.9c-0.1-0.1-0.1-0.3-0.2-0.4l-0.2-0.4c0-0.1-0.1-0.1-0.1-0.2l-0.1-0.2l-0.2-0.4
						c-0.1-0.3-0.2-0.6-0.4-0.9c-0.1-0.3-0.2-0.6-0.3-0.9c0-0.1,0-0.2,0.1-0.2c0.1,0,0.2,0,0.2,0.1l0,0c0.1,0.3,0.2,0.6,0.3,0.8
						c0.1,0.3,0.2,0.6,0.4,0.8l0.2,0.4l0.1,0.2c0,0.1,0.1,0.1,0.1,0.2l0.2,0.4c0.1,0.1,0.1,0.3,0.2,0.4c0.6,1,1.3,2,2.1,2.9
						c0.8,0.9,1.7,1.8,2.6,2.5c0.9,0.8,1.9,1.5,2.9,2.1c1,0.6,2.1,1.2,3.2,1.8c1.1,0.5,2.2,1,3.3,1.4c2.3,0.8,4.6,1.4,7,1.9
						c2.4,0.4,4.8,0.6,7.2,0.6c1.2,0,2.4-0.1,3.6-0.2c1.2-0.1,2.4-0.3,3.6-0.6c1.2-0.3,2.3-0.6,3.5-1c1.1-0.4,2.2-0.9,3.3-1.5
						c1.1-0.6,2.1-1.3,3-2l0.2-0.1l0.1-0.1l0.1-0.1l0.3-0.3l0.2-0.2c0.1-0.1,0.1-0.1,0.2-0.2l0.3-0.3c0.1-0.1,0.1-0.1,0.2-0.2
						l0.2-0.2l0.3-0.3c0.1-0.1,0.1-0.1,0.1-0.2l0.1-0.2l0.3-0.3l0,0c0.1-0.1,0.2-0.1,0.2,0c0.1,0.1,0.1,0.2,0,0.2l-0.3,0.4l-0.1,0.2
						c0,0.1-0.1,0.1-0.1,0.2l-0.3,0.3l-0.2,0.2c-0.1,0.1-0.1,0.1-0.2,0.2l-0.3,0.3c-0.1,0.1-0.1,0.1-0.2,0.2l-0.2,0.2l-0.3,0.3
						l-0.1,0.1l-0.1,0.1l-0.2,0.1c-0.4,0.4-0.9,0.7-1.4,1.1c17.2,0.4,34.2-2.2,50.2-7.6C1001.6,600.3,979.9,597.5,958.2,594.7z"/>
				</g>
			</g>
		</g>
		<g>
			<path opacity="0.8" fill="#82D8F9" d="M1549.6,269.2c90,14.7,179.9,30.2,269.7,46.6c33.6,6.1,67.2,12.4,100.7,18.8V333
				c-123.1-23.1-246.6-44.4-370.3-64.3c-90.1-14.5-180.3-28.3-270.6-41.4c-90.3-13.2-180.7-25.7-271.1-37.7
				c90.4,12,180.8,24.6,271.1,37.8C1369.4,240.6,1459.5,254.6,1549.6,269.2z"/>
			<g>
				<path opacity="0.8" fill="#82D8F9" d="M-0.9,85.6c64.3,4.3,128.6,9.1,192.8,14.4c90.9,7.6,181.7,16,272.5,25.3
					c90.8,9.3,181.4,19.3,272,30.1c90.6,10.8,181.1,22.1,271.6,34.1c-90.4-12-181-23.5-271.6-34.3c-90.6-10.8-181.3-21.1-272-30.5
					c-154.9-16.2-310-30.3-465.4-41.2V85.6z"/>
				<path opacity="0.8" fill="#82D8F9" d="M1467.7,882.8c-90.8-8-181.5-17.2-272.1-27.3c-90.6-10.1-181.1-21.1-271.5-33.2
					c-90.4-12-180.6-24.9-270.7-38.8c-90.1-13.9-180.1-28.7-269.8-44.6C255,716.3,126.7,691.4-0.9,663.8v15.8
					c37.5,8.2,75,16.2,112.5,23.9c68.8,14.2,137.8,27.6,206.8,40.4l0.1,0l4.1-2.9l0.6-0.5l0.8-0.1l9.7-1.3l1.8-0.2l1.2,1.4l2.9,3.5
					l4.4-0.2l2.6-0.1l0.7,2.5l1,3.5c10.7,2,21.5,3.9,32.2,5.9c179.7,32.2,360.3,60,541.3,84c90.5,12,181.2,23,271.9,33.1
					c90.8,10,181.6,19,272.6,26.9c91,7.9,182,14.6,273.1,20.2c60.1,3.6,120.3,6.7,180.5,9.1v-15.1
					C1769.1,906.7,1618.3,896.2,1467.7,882.8z"/>
			</g>
		</g>
		<g>
			<path opacity="0.8" fill="#004999" d="M1897.7,409.9c7.4,1.7,14.8,3.4,22.3,5.2v-9.9c-6.7-1.4-13.4-2.8-20.1-4.2
				c-148.9-31.1-298.6-58.5-448.6-83.4c-150.1-24.8-300.5-47.1-451.3-67.1c150.8,20,301.2,43,450.9,69.4
				C1600.6,346.2,1749.8,375.9,1897.7,409.9z"/>
			<g>
				<path opacity="0.8" fill="#004999" d="M-0.9,167.6c11.9,0.3,23.8,0.6,35.6,0.9c19,0.6,37.9,1.2,56.9,1.9
					c151.8,5.7,303.5,15.9,454.9,29.4c151.4,13.6,302.6,30.6,453.4,50.5c-150.8-20-301.9-37.7-453.2-52.9
					c-151.4-15.1-303-27.7-454.8-36.4c-30.9-1.8-61.9-3.4-92.8-4.8V167.6z"/>
				<path opacity="0.8" fill="#004999" d="M1843.9,796.9c-151.1-8.7-302.1-21.3-452.9-36.3c-150.8-15.1-301.4-32.8-451.7-52.7
					C789,687.9,639,665.7,489.5,640.9C340,616.1,191,588.8,42.8,557.8c-14.6-3.1-29.2-6.2-43.7-9.3v59.9c10,2.3,20,4.7,30,7
					c148.8,34.2,298.5,64,448.8,90.5c150.3,26.4,301.2,49.5,452.5,69.6c151.3,20,303,37,455,50.7c152,13.6,304.3,23.8,456.9,29.6
					c19.1,0.7,38.1,1.4,57.2,1.9c6.9,0.2,13.8,0.4,20.6,0.6v-57.3C1894.6,799.6,1869.2,798.3,1843.9,796.9z"/>
			</g>
		</g>
		<g>
			<path opacity="0.8" fill="#82D8F9" d="M1389.1,364.5c130.6,21.5,260.8,45.2,390.4,71.7c46.9,9.6,93.7,19.6,140.4,30v-7.3
				c-46.4-9.6-92.9-18.8-139.4-27.8c-130-24.9-260.5-47.2-391.2-67.9c-114.3-18.1-228.8-34.8-343.4-50.3c0,0,0.1,0,0.1,0
				C1160.6,328.6,1275,345.7,1389.1,364.5z"/>
			<g>
				<path opacity="0.8" fill="#82D8F9" d="M-0.9,217.5c3.1,0.1,6.1,0.2,9.2,0.3c66.1,2.4,132.2,5.7,198.2,9.8
					c132.1,8.2,263.9,19.3,395.6,32.6C723,272.3,843.7,286.4,964.3,302c0,0,0.1,0,0.1,0c-120.5-15.8-241.2-30.2-362.1-43.2
					c-131.6-14.1-263.4-26.5-395.4-36.4c-66-4.9-132.1-9.3-198.2-12.6c-3.2-0.2-6.4-0.3-9.6-0.5V217.5z"/>
				<path opacity="0.8" fill="#82D8F9" d="M1818.3,718.2l-1.1,1.3l-2,2.3l-3.1,0l-3,0l-6,3l-1.4,0.7l-1.6,0l-24.9-0.2l-2.2,0
					l-1.7-1.3l-12.2-9.4c-5.9-0.4-11.8-0.7-17.6-1.1c-131.8-8.7-263.5-20.1-394.9-33.6c-131.4-13.5-262.7-29-393.7-46.4
					c-131-17.4-261.7-36.6-392.2-57.9c-130.4-21.3-260.5-44.5-390-70.5c-57.4-11.5-114.7-23.6-171.8-36.4v31
					c54.9,13.1,110,25.5,165.2,37.3c129.7,27.7,260,52.3,390.7,74.5c130.7,22.1,261.8,41.8,393.2,59.3
					c131.4,17.4,263.1,32.5,395,45.2c132,12.6,264.2,22.8,396.6,29.9c60.1,3.2,120.2,5.6,180.3,7.3v-29.9
					C1886.1,721.9,1852.2,720.2,1818.3,718.2z"/>
			</g>
		</g>
	</g>
	<g>
		<polygon fill="#2AB6F4" points="1800.2,719.1 1775.4,718.9 1758.9,706.2 1759,693.8 1770.1,672.6 1785.3,671.5 1793.3,659 
			1811.6,665.4 1829.1,674.7 1833.5,694.3 1823,695.4 1821.5,701.7 1816,704.6 1816.4,710.4 1812.2,715.4 1807.6,715.4 		"/>
	</g>
	<g>
		<polygon fill="#2AB6F4" points="242.8,772.7 255.7,775.2 263.6,782.1 275.9,792.7 270.1,815.5 262.7,824.1 244,828.4 233.6,835.5 
			217.7,821.7 198.9,823.6 194.1,814.2 187.4,808.4 188.8,796.8 192,784.5 201.5,773.4 221.7,758.7 229.1,766.2 		"/>
	</g>
	<g>
		<polygon fill="#2AB6F4" points="115.8,390.1 119.2,390.1 122.2,386.3 126.7,386.3 130.8,386.3 137.2,388.2 137.2,392.7 
			143.6,397.6 143.6,402.5 148.6,408.5 148.6,413.8 142.1,420.9 132.2,423.2 132.2,429.2 128.9,433 127.1,439 121.4,439 
			115.8,442.4 112,442.4 104.5,442.4 101.5,434.9 101.5,429.6 99.6,426.2 97,422.8 91,418.7 91,411.9 91,401.4 96.6,401.4 
			98.1,395.4 95.8,390.1 99.6,384.5 104.1,381.5 110.5,381.5 113.1,385.6 		"/>
	</g>
	
		<ellipse transform="matrix(0.1128 -0.9936 0.9936 0.1128 1246.2676 1989.8448)" fill="#004999" cx="1737.4" cy="297.1" rx="3" ry="3"/>
	
		<ellipse transform="matrix(0.4534 -0.8913 0.8913 0.4534 -123.8027 135.0063)" fill="#004999" cx="48.2" cy="168.4" rx="3.7" ry="3.7"/>
	<g>
		
			<ellipse transform="matrix(6.748973e-02 -0.9977 0.9977 6.748973e-02 914.7922 2698.686)" fill="#004999" cx="1901.1" cy="860" rx="6.9" ry="6.9"/>
		
			<ellipse transform="matrix(0.4628 -0.8865 0.8865 0.4628 147.0786 1979.9702)" fill="#004999" cx="1707.2" cy="868.6" rx="3.8" ry="3.8"/>
		
			<ellipse transform="matrix(0.4628 -0.8865 0.8865 0.4628 82.6229 1841.7439)" fill="#004999" cx="1560.9" cy="852.7" rx="5.1" ry="5.1"/>
		
			<ellipse transform="matrix(0.4628 -0.8865 0.8865 0.4628 57.6662 1814.5648)" fill="#004999" cx="1526" cy="859.7" rx="2.4" ry="2.4"/>
		
			<ellipse transform="matrix(6.748973e-02 -0.9977 0.9977 6.748973e-02 859.803 2639.3923)" fill="#004999" cx="1841.9" cy="859.7" rx="4" ry="4"/>
		
			<ellipse transform="matrix(6.748973e-02 -0.9977 0.9977 6.748973e-02 675.1393 2430.5996)" fill="#004999" cx="1637.9" cy="854.1" rx="3" ry="3"/>
	</g>
	
		<ellipse transform="matrix(0.7396 -0.6731 0.6731 0.7396 -73.4565 240.2415)" fill="#004999" cx="273.7" cy="215" rx="6.1" ry="6.1"/>
	
		<ellipse transform="matrix(0.7396 -0.6731 0.6731 0.7396 -80.0387 210.2249)" fill="#004999" cx="231.7" cy="208.5" rx="2.9" ry="2.9"/>
	
		<ellipse transform="matrix(0.4534 -0.8913 0.8913 0.4534 -52.7229 267.1302)" fill="#004999" cx="191.4" cy="176.6" rx="3.7" ry="3.7"/>
	
		<ellipse transform="matrix(0.1128 -0.9936 0.9936 0.1128 1241.8042 2026.5066)" fill="#2AB6F4" cx="1755.7" cy="317.9" rx="4" ry="4"/>
	
		<ellipse transform="matrix(0.1128 -0.9936 0.9936 0.1128 1207.725 1920.0851)" fill="#2AB6F4" cx="1679" cy="283.8" rx="3" ry="3"/>
	
		<ellipse transform="matrix(0.1128 -0.9936 0.9936 0.1128 1199.3196 1793.3289)" fill="#2AB6F4" cx="1603.9" cy="225.1" rx="5.2" ry="5.2"/>
	
		<ellipse transform="matrix(0.9795 -0.2013 0.2013 0.9795 -114.7824 47.7931)" fill="#008CDB" cx="177.6" cy="588.1" rx="7.9" ry="7.9"/>
	
		<ellipse transform="matrix(0.2233 -0.9747 0.9747 0.2233 -600.5173 579.8196)" fill="#2AB6F4" cx="63.6" cy="666.7" rx="3" ry="3"/>
	
		<ellipse transform="matrix(0.2233 -0.9747 0.9747 0.2233 -524.5121 651.2147)" fill="#008CDB" cx="146.4" cy="654.7" rx="3.3" ry="3.3"/>
	
		<ellipse transform="matrix(0.9949 -0.1005 0.1005 0.9949 -73.2171 57.5051)" fill="#008CDB" cx="534.1" cy="755.4" rx="3.5" ry="3.5"/>
	
		<ellipse transform="matrix(0.9949 -0.1005 0.1005 0.9949 -69.3369 61.6931)" fill="#008CDB" cx="577.6" cy="719" rx="3.1" ry="3.1"/>
	
		<ellipse transform="matrix(0.9949 -0.1005 0.1005 0.9949 -66.8955 58.6262)" fill="#008CDB" cx="548.4" cy="693.2" rx="3.8" ry="3.8"/>
	
		<ellipse transform="matrix(0.9739 -0.2268 0.2268 0.9739 -145.7494 263.4791)" fill="#008CDB" cx="1073.7" cy="766" rx="4" ry="4"/>
	
		<ellipse transform="matrix(0.9101 -0.4145 0.4145 0.9101 -217.8687 54.4546)" fill="#2AB6F4" cx="16.5" cy="529.2" rx="7.2" ry="7.2"/>
	
		<ellipse transform="matrix(0.5986 -0.8011 0.8011 0.5986 -333.3661 780.639)" fill="#008CDB" cx="612.2" cy="722.9" rx="4.3" ry="4.3"/>
	
		<ellipse transform="matrix(0.5986 -0.8011 0.8011 0.5986 -310.6719 748.2374)" fill="#008CDB" cx="591.2" cy="684.1" rx="4.3" ry="4.3"/>
	
		<ellipse transform="matrix(0.5986 -0.8011 0.8011 0.5986 -374.4505 712.6186)" fill="#008CDB" cx="523.8" cy="729.9" rx="7" ry="7"/>
	
		<ellipse transform="matrix(0.8013 -0.5983 0.5983 0.8013 99.9193 629.8929)" fill="#008CDB" cx="998.2" cy="164.5" rx="6.3" ry="6.3"/>
	
		<ellipse transform="matrix(0.8013 -0.5983 0.5983 0.8013 56.1323 597.5789)" fill="#008CDB" cx="927.6" cy="214.3" rx="3.7" ry="3.7"/>
	<circle fill="#008CDB" cx="1376.7" cy="805.6" r="1.4"/>
	
		<ellipse transform="matrix(0.4019 -0.9157 0.9157 0.4019 187.7373 1949.8721)" fill="#008CDB" cx="1586.5" cy="831.2" rx="3.8" ry="3.8"/>
	<circle fill="#008CDB" cx="1452.8" cy="849.2" r="4"/>
	<circle fill="#008CDB" cx="1538.9" cy="849.2" r="2.9"/>
	
		<ellipse transform="matrix(0.8994 -0.4372 0.4372 0.8994 46.6579 849.1738)" opacity="0.5" fill="#2AB6F4" cx="1868" cy="323.2" rx="7.2" ry="7.2"/>
	
		<ellipse transform="matrix(0.765 -0.644 0.644 0.765 104.8365 728.1557)" fill="#2AB6F4" cx="1050.3" cy="220.4" rx="3.8" ry="3.8"/>
	
		<ellipse transform="matrix(0.7367 -0.6763 0.6763 0.7367 144.867 749.6878)" fill="#008CDB" cx="1035.1" cy="188.8" rx="2.4" ry="2.4"/>
	<g>
		
			<ellipse transform="matrix(0.1796 -0.9837 0.9837 0.1796 969.2574 1534.2872)" fill="#008CDB" cx="1404.5" cy="186" rx="6.9" ry="6.9"/>
		
			<ellipse transform="matrix(0.1796 -0.9837 0.9837 0.1796 1013.6338 1629.6674)" fill="#008CDB" cx="1483.9" cy="207.1" rx="1.4" ry="1.4"/>
		
			<ellipse transform="matrix(0.5598 -0.8286 0.8286 0.5598 538.3073 1411.9375)" fill="#008CDB" cx="1598.1" cy="199.3" rx="3.8" ry="3.8"/>
		
			<ellipse transform="matrix(0.5598 -0.8286 0.8286 0.5598 574.7066 1545.1107)" fill="#008CDB" cx="1741.7" cy="231.6" rx="5.1" ry="5.1"/>
		
			<ellipse transform="matrix(0.5598 -0.8286 0.8286 0.5598 592.823 1573.1721)" fill="#008CDB" cx="1777.1" cy="228.6" rx="2.4" ry="2.4"/>
		
			<ellipse transform="matrix(0.1796 -0.9837 0.9837 0.1796 1010.7134 1597.8081)" fill="#008CDB" cx="1463.3" cy="192.9" rx="4" ry="4"/>
		
			<ellipse transform="matrix(0.1796 -0.9837 0.9837 0.1796 1064.9834 1693.9165)" fill="#008CDB" cx="1548.1" cy="208.5" rx="2.9" ry="2.9"/>
		
			<ellipse transform="matrix(0.1796 -0.9837 0.9837 0.1796 1148.3997 1820.0662)" fill="#008CDB" cx="1665.4" cy="221.5" rx="3" ry="3"/>
	</g>
	<path opacity="0.5" fill="#2AB6F4" d="M1096.9,807.7l20.7-5.8c9.5-2.7,16.8-10.4,18.9-20.1l4.6-21l5.8,20.7
		c2.7,9.5,10.4,16.8,20.1,18.9l21,4.6l-20.7,5.8c-9.5,2.7-16.8,10.4-18.9,20.1l-4.6,21l-5.8-20.7c-2.7-9.5-10.4-16.8-20.1-18.9
		L1096.9,807.7z"/>
	
		<ellipse transform="matrix(0.2233 -0.9747 0.9747 0.2233 -633.5408 585.9604)" fill="#004999" cx="50.9" cy="690.5" rx="3.1" ry="3.1"/>
	
		<ellipse transform="matrix(0.2233 -0.9747 0.9747 0.2233 -597.4219 637.1666)" fill="#004999" cx="101.1" cy="693.5" rx="3.8" ry="3.8"/>
	
		<ellipse transform="matrix(0.5746 -0.8184 0.8184 0.5746 -135.3949 1271.8488)" fill="#004999" cx="1155.7" cy="766.2" rx="6" ry="6"/>
	
		<ellipse transform="matrix(0.5026 -0.8645 0.8645 0.5026 573.3576 1580.8708)" fill="#004999" cx="1660.6" cy="292.1" rx="5.1" ry="5.1"/>
	
		<ellipse transform="matrix(0.5026 -0.8645 0.8645 0.5026 551.1819 1553.1426)" fill="#004999" cx="1625.4" cy="297.6" rx="2.4" ry="2.4"/>
	<ellipse transform="matrix(0.4534 -0.8913 0.8913 0.4534 -158.494 107.6248)" fill="#004999" cx="8.5" cy="183" rx="7" ry="7"/>
	<g>
		
			<ellipse transform="matrix(0.1796 -0.9837 0.9837 0.1796 624.7014 997.7838)" fill="#004999" cx="910.6" cy="124.4" rx="6.9" ry="6.9"/>
		
			<ellipse transform="matrix(0.1796 -0.9837 0.9837 0.1796 632.6103 1074.9452)" fill="#004999" cx="960.8" cy="158.2" rx="1.4" ry="1.4"/>
		
			<ellipse transform="matrix(0.5598 -0.8286 0.8286 0.5598 368.1577 1006.6121)" fill="#004999" cx="1131.5" cy="156.8" rx="3.8" ry="3.8"/>
		
			<ellipse transform="matrix(0.1796 -0.9837 0.9837 0.1796 629.6899 1043.0859)" fill="#004999" cx="940.2" cy="144" rx="4" ry="4"/>
		
			<ellipse transform="matrix(0.1796 -0.9837 0.9837 0.1796 724.0079 1200.041)" fill="#004999" cx="1081.5" cy="166" rx="2.9" ry="2.9"/>
	</g>
	<circle fill="#008CDB" cx="5.4" cy="235.1" r="6.3"/>
	
		<ellipse transform="matrix(0.8434 -0.5373 0.5373 0.8434 -257.4588 698.636)" fill="#008CDB" cx="1069.7" cy="791" rx="6.1" ry="6.1"/>
	
		<ellipse transform="matrix(0.8434 -0.5373 0.5373 0.8434 -256.4872 674.8247)" fill="#2AB6F4" cx="1029.3" cy="777.4" rx="2.9" ry="2.9"/>
	
		<ellipse transform="matrix(0.5986 -0.8011 0.8011 0.5986 -192.5053 1093.8871)" fill="#2AB6F4" cx="995.2" cy="739" rx="3.7" ry="3.7"/>
	
		<ellipse transform="matrix(0.5986 -0.8011 0.8011 0.5986 -215.3057 1063.6426)" fill="#2AB6F4" cx="953.6" cy="746.6" rx="7" ry="7"/>
	<circle fill="#2AB6F4" cx="1591.4" cy="799.1" r="6.9"/>
	<g>
		
			<ellipse transform="matrix(0.2364 -0.9717 0.9717 0.2364 -179.0512 1525.2623)" fill="#004999" cx="880.9" cy="876.5" rx="6.9" ry="6.9"/>
		
			<ellipse transform="matrix(0.607 -0.7947 0.7947 0.607 -406.6311 881.9014)" fill="#004999" cx="688.3" cy="852.1" rx="3.8" ry="3.8"/>
		
			<ellipse transform="matrix(0.607 -0.7947 0.7947 0.607 -429.9455 753.5483)" fill="#004999" cx="546.9" cy="811.5" rx="5.1" ry="5.1"/>
		
			<ellipse transform="matrix(0.607 -0.7947 0.7947 0.607 -444.6919 725.6437)" fill="#004999" cx="511.3" cy="812.4" rx="2.4" ry="2.4"/>
		
			<ellipse transform="matrix(0.2364 -0.9717 0.9717 0.2364 -213.5623 1460.7323)" fill="#004999" cx="822.6" cy="866.2" rx="4" ry="4"/>
		
			<ellipse transform="matrix(0.2364 -0.9717 0.9717 0.2364 -327.2349 1235.5613)" fill="#004999" cx="622.5" cy="826" rx="3" ry="3"/>
	</g>
	<circle fill="#008CDB" cx="213.9" cy="189.5" r="4"/>
	
		<ellipse transform="matrix(0.4268 -0.9043 0.9043 0.4268 -47.1545 397.3784)" fill="#008CDB" cx="289.9" cy="235.9" rx="3.8" ry="3.8"/>
	
		<ellipse transform="matrix(0.552 -0.8339 0.8339 0.552 -404.1158 699.7195)" fill="#008CDB" cx="449.1" cy="725.9" rx="3.8" ry="3.8"/>
	
		<ellipse transform="matrix(0.1703 -0.9854 0.9854 0.1703 -393.6736 1003.6124)" fill="#008CDB" cx="399.1" cy="735.6" rx="2.9" ry="2.9"/>
	
		<ellipse transform="matrix(0.1703 -0.9854 0.9854 0.1703 -312.3877 984.3027)" fill="#008CDB" cx="428.3" cy="677.6" rx="3" ry="3"/>
	<circle fill="#008CDB" cx="316.4" cy="230.5" r="3.7"/>
	
		<ellipse transform="matrix(0.1703 -0.9854 0.9854 0.1703 -303.851 1029.4104)" fill="#2AB6F4" cx="459.3" cy="695.1" rx="6.9" ry="6.9"/>
	<g>
		<polygon fill="#2AB6F4" points="1800.2,719.1 1775.4,718.9 1758.9,706.2 1759,693.8 1770.1,672.6 1785.3,671.5 1793.3,659 
			1811.6,665.4 1829.1,674.7 1833.5,694.3 1823,695.4 1821.5,701.7 1816,704.6 1816.4,710.4 1812.2,715.4 1807.6,715.4 		"/>
	</g>
	<g>
		<polygon fill="#2AB6F4" points="242.8,772.7 255.7,775.2 263.6,782.1 275.9,792.7 270.1,815.5 262.7,824.1 244,828.4 233.6,835.5 
			217.7,821.7 198.9,823.6 194.1,814.2 187.4,808.4 188.8,796.8 192,784.5 201.5,773.4 221.7,758.7 229.1,766.2 		"/>
	</g>
	
		<ellipse transform="matrix(0.1128 -0.9936 0.9936 0.1128 1246.2676 1989.8448)" fill="#004999" cx="1737.4" cy="297.1" rx="3" ry="3"/>
	
		<ellipse transform="matrix(0.4534 -0.8913 0.8913 0.4534 -123.8027 135.0063)" fill="#004999" cx="48.2" cy="168.4" rx="3.7" ry="3.7"/>
	<g>
		
			<ellipse transform="matrix(6.748973e-02 -0.9977 0.9977 6.748973e-02 914.7922 2698.686)" fill="#004999" cx="1901.1" cy="860" rx="6.9" ry="6.9"/>
		
			<ellipse transform="matrix(0.4628 -0.8865 0.8865 0.4628 147.0786 1979.9702)" fill="#004999" cx="1707.2" cy="868.6" rx="3.8" ry="3.8"/>
		
			<ellipse transform="matrix(0.4628 -0.8865 0.8865 0.4628 82.6229 1841.7439)" fill="#004999" cx="1560.9" cy="852.7" rx="5.1" ry="5.1"/>
		
			<ellipse transform="matrix(0.4628 -0.8865 0.8865 0.4628 57.6662 1814.5648)" fill="#004999" cx="1526" cy="859.7" rx="2.4" ry="2.4"/>
		
			<ellipse transform="matrix(6.748973e-02 -0.9977 0.9977 6.748973e-02 859.803 2639.3923)" fill="#004999" cx="1841.9" cy="859.7" rx="4" ry="4"/>
		
			<ellipse transform="matrix(6.748973e-02 -0.9977 0.9977 6.748973e-02 675.1393 2430.5996)" fill="#004999" cx="1637.9" cy="854.1" rx="3" ry="3"/>
	</g>
	
		<ellipse transform="matrix(0.7396 -0.6731 0.6731 0.7396 -73.4565 240.2415)" fill="#004999" cx="273.7" cy="215" rx="6.1" ry="6.1"/>
	
		<ellipse transform="matrix(0.7396 -0.6731 0.6731 0.7396 -80.0387 210.2249)" fill="#004999" cx="231.7" cy="208.5" rx="2.9" ry="2.9"/>
	
		<ellipse transform="matrix(0.4534 -0.8913 0.8913 0.4534 -52.7229 267.1302)" fill="#004999" cx="191.4" cy="176.6" rx="3.7" ry="3.7"/>
	
		<ellipse transform="matrix(0.1128 -0.9936 0.9936 0.1128 1241.8042 2026.5066)" fill="#2AB6F4" cx="1755.7" cy="317.9" rx="4" ry="4"/>
	
		<ellipse transform="matrix(0.1128 -0.9936 0.9936 0.1128 1207.725 1920.0851)" fill="#2AB6F4" cx="1679" cy="283.8" rx="3" ry="3"/>
	
		<ellipse transform="matrix(0.1128 -0.9936 0.9936 0.1128 1199.3196 1793.3289)" fill="#2AB6F4" cx="1603.9" cy="225.1" rx="5.2" ry="5.2"/>
	
		<ellipse transform="matrix(0.9795 -0.2013 0.2013 0.9795 -114.7824 47.7931)" fill="#008CDB" cx="177.6" cy="588.1" rx="7.9" ry="7.9"/>
	
		<ellipse transform="matrix(0.2233 -0.9747 0.9747 0.2233 -600.5173 579.8196)" fill="#2AB6F4" cx="63.6" cy="666.7" rx="3" ry="3"/>
	
		<ellipse transform="matrix(0.2233 -0.9747 0.9747 0.2233 -524.5121 651.2147)" fill="#008CDB" cx="146.4" cy="654.7" rx="3.3" ry="3.3"/>
	
		<ellipse transform="matrix(0.9949 -0.1005 0.1005 0.9949 -73.2171 57.5051)" fill="#008CDB" cx="534.1" cy="755.4" rx="3.5" ry="3.5"/>
	
		<ellipse transform="matrix(0.9949 -0.1005 0.1005 0.9949 -69.3369 61.6931)" fill="#008CDB" cx="577.6" cy="719" rx="3.1" ry="3.1"/>
	
		<ellipse transform="matrix(0.9949 -0.1005 0.1005 0.9949 -66.8955 58.6262)" fill="#008CDB" cx="548.4" cy="693.2" rx="3.8" ry="3.8"/>
	
		<ellipse transform="matrix(0.9739 -0.2268 0.2268 0.9739 -145.7494 263.4791)" fill="#008CDB" cx="1073.7" cy="766" rx="4" ry="4"/>
	
		<ellipse transform="matrix(0.9101 -0.4145 0.4145 0.9101 -217.8687 54.4546)" fill="#2AB6F4" cx="16.5" cy="529.2" rx="7.2" ry="7.2"/>
	
		<ellipse transform="matrix(0.5986 -0.8011 0.8011 0.5986 -333.3661 780.639)" fill="#008CDB" cx="612.2" cy="722.9" rx="4.3" ry="4.3"/>
	
		<ellipse transform="matrix(0.5986 -0.8011 0.8011 0.5986 -310.6719 748.2374)" fill="#008CDB" cx="591.2" cy="684.1" rx="4.3" ry="4.3"/>
	
		<ellipse transform="matrix(0.5986 -0.8011 0.8011 0.5986 -374.4505 712.6186)" fill="#008CDB" cx="523.8" cy="729.9" rx="7" ry="7"/>
	
		<ellipse transform="matrix(0.8013 -0.5983 0.5983 0.8013 99.9193 629.8929)" fill="#008CDB" cx="998.2" cy="164.5" rx="6.3" ry="6.3"/>
	
		<ellipse transform="matrix(0.8013 -0.5983 0.5983 0.8013 56.1323 597.5789)" fill="#008CDB" cx="927.6" cy="214.3" rx="3.7" ry="3.7"/>
	<circle fill="#008CDB" cx="1376.7" cy="805.6" r="1.4"/>
	
		<ellipse transform="matrix(0.4019 -0.9157 0.9157 0.4019 187.7373 1949.8721)" fill="#008CDB" cx="1586.5" cy="831.2" rx="3.8" ry="3.8"/>
	<circle fill="#008CDB" cx="1452.8" cy="849.2" r="4"/>
	<circle fill="#008CDB" cx="1538.9" cy="849.2" r="2.9"/>
	
		<ellipse transform="matrix(0.8994 -0.4372 0.4372 0.8994 46.6579 849.1738)" opacity="0.5" fill="#2AB6F4" cx="1868" cy="323.2" rx="7.2" ry="7.2"/>
	
		<ellipse transform="matrix(0.765 -0.644 0.644 0.765 104.8365 728.1557)" fill="#2AB6F4" cx="1050.3" cy="220.4" rx="3.8" ry="3.8"/>
	
		<ellipse transform="matrix(0.7367 -0.6763 0.6763 0.7367 144.867 749.6878)" fill="#008CDB" cx="1035.1" cy="188.8" rx="2.4" ry="2.4"/>
	<g>
		
			<ellipse transform="matrix(0.1796 -0.9837 0.9837 0.1796 969.2574 1534.2872)" fill="#008CDB" cx="1404.5" cy="186" rx="6.9" ry="6.9"/>
		
			<ellipse transform="matrix(0.1796 -0.9837 0.9837 0.1796 1013.6338 1629.6674)" fill="#008CDB" cx="1483.9" cy="207.1" rx="1.4" ry="1.4"/>
		
			<ellipse transform="matrix(0.5598 -0.8286 0.8286 0.5598 538.3073 1411.9375)" fill="#008CDB" cx="1598.1" cy="199.3" rx="3.8" ry="3.8"/>
		
			<ellipse transform="matrix(0.5598 -0.8286 0.8286 0.5598 574.7066 1545.1107)" fill="#008CDB" cx="1741.7" cy="231.6" rx="5.1" ry="5.1"/>
		
			<ellipse transform="matrix(0.5598 -0.8286 0.8286 0.5598 592.823 1573.1721)" fill="#008CDB" cx="1777.1" cy="228.6" rx="2.4" ry="2.4"/>
		
			<ellipse transform="matrix(0.1796 -0.9837 0.9837 0.1796 1010.7134 1597.8081)" fill="#008CDB" cx="1463.3" cy="192.9" rx="4" ry="4"/>
		
			<ellipse transform="matrix(0.1796 -0.9837 0.9837 0.1796 1064.9834 1693.9165)" fill="#008CDB" cx="1548.1" cy="208.5" rx="2.9" ry="2.9"/>
		
			<ellipse transform="matrix(0.1796 -0.9837 0.9837 0.1796 1148.3997 1820.0662)" fill="#008CDB" cx="1665.4" cy="221.5" rx="3" ry="3"/>
	</g>
	<path fill="#2AB6F4" d="M1777.2,78.2l-16.8,12.1c-7.7,5.6-11.7,14.9-10.4,24.4l2.9,20.5l-12.1-16.8c-5.6-7.7-14.9-11.7-24.4-10.4
		l-20.5,2.9l16.8-12.1c7.7-5.6,11.7-14.9,10.4-24.4l-2.9-20.5l12.1,16.8c5.6,7.7,14.9,11.7,24.4,10.4L1777.2,78.2z"/>
	<path opacity="0.5" fill="#2AB6F4" d="M1096.9,807.7l20.7-5.8c9.5-2.7,16.8-10.4,18.9-20.1l4.6-21l5.8,20.7
		c2.7,9.5,10.4,16.8,20.1,18.9l21,4.6l-20.7,5.8c-9.5,2.7-16.8,10.4-18.9,20.1l-4.6,21l-5.8-20.7c-2.7-9.5-10.4-16.8-20.1-18.9
		L1096.9,807.7z"/>
	
		<ellipse transform="matrix(0.2233 -0.9747 0.9747 0.2233 -633.5408 585.9604)" fill="#004999" cx="50.9" cy="690.5" rx="3.1" ry="3.1"/>
	
		<ellipse transform="matrix(0.2233 -0.9747 0.9747 0.2233 -597.4219 637.1666)" fill="#004999" cx="101.1" cy="693.5" rx="3.8" ry="3.8"/>
	
		<ellipse transform="matrix(0.5746 -0.8184 0.8184 0.5746 -135.3949 1271.8488)" fill="#004999" cx="1155.7" cy="766.2" rx="6" ry="6"/>
	
		<ellipse transform="matrix(0.5026 -0.8645 0.8645 0.5026 573.3576 1580.8708)" fill="#004999" cx="1660.6" cy="292.1" rx="5.1" ry="5.1"/>
	
		<ellipse transform="matrix(0.5026 -0.8645 0.8645 0.5026 551.1819 1553.1426)" fill="#004999" cx="1625.4" cy="297.6" rx="2.4" ry="2.4"/>
	<ellipse transform="matrix(0.4534 -0.8913 0.8913 0.4534 -158.494 107.6248)" fill="#004999" cx="8.5" cy="183" rx="7" ry="7"/>
	<g>
		
			<ellipse transform="matrix(0.1796 -0.9837 0.9837 0.1796 624.7014 997.7838)" fill="#004999" cx="910.6" cy="124.4" rx="6.9" ry="6.9"/>
		
			<ellipse transform="matrix(0.1796 -0.9837 0.9837 0.1796 632.6103 1074.9452)" fill="#004999" cx="960.8" cy="158.2" rx="1.4" ry="1.4"/>
		
			<ellipse transform="matrix(0.5598 -0.8286 0.8286 0.5598 368.1577 1006.6121)" fill="#004999" cx="1131.5" cy="156.8" rx="3.8" ry="3.8"/>
		
			<ellipse transform="matrix(0.1796 -0.9837 0.9837 0.1796 629.6899 1043.0859)" fill="#004999" cx="940.2" cy="144" rx="4" ry="4"/>
		
			<ellipse transform="matrix(0.1796 -0.9837 0.9837 0.1796 724.0079 1200.041)" fill="#004999" cx="1081.5" cy="166" rx="2.9" ry="2.9"/>
	</g>
	<circle fill="#008CDB" cx="5.4" cy="235.1" r="6.3"/>
	
		<ellipse transform="matrix(0.8434 -0.5373 0.5373 0.8434 -257.4588 698.636)" fill="#008CDB" cx="1069.7" cy="791" rx="6.1" ry="6.1"/>
	
		<ellipse transform="matrix(0.8434 -0.5373 0.5373 0.8434 -256.4872 674.8247)" fill="#2AB6F4" cx="1029.3" cy="777.4" rx="2.9" ry="2.9"/>
	
		<ellipse transform="matrix(0.5986 -0.8011 0.8011 0.5986 -192.5053 1093.8871)" fill="#2AB6F4" cx="995.2" cy="739" rx="3.7" ry="3.7"/>
	
		<ellipse transform="matrix(0.5986 -0.8011 0.8011 0.5986 -215.3057 1063.6426)" fill="#2AB6F4" cx="953.6" cy="746.6" rx="7" ry="7"/>
	<circle fill="#2AB6F4" cx="1591.4" cy="799.1" r="6.9"/>
	<g>
		
			<ellipse transform="matrix(0.2364 -0.9717 0.9717 0.2364 -179.0512 1525.2623)" fill="#004999" cx="880.9" cy="876.5" rx="6.9" ry="6.9"/>
		
			<ellipse transform="matrix(0.607 -0.7947 0.7947 0.607 -406.6311 881.9014)" fill="#004999" cx="688.3" cy="852.1" rx="3.8" ry="3.8"/>
		
			<ellipse transform="matrix(0.607 -0.7947 0.7947 0.607 -429.9455 753.5483)" fill="#004999" cx="546.9" cy="811.5" rx="5.1" ry="5.1"/>
		
			<ellipse transform="matrix(0.607 -0.7947 0.7947 0.607 -444.6919 725.6437)" fill="#004999" cx="511.3" cy="812.4" rx="2.4" ry="2.4"/>
		
			<ellipse transform="matrix(0.2364 -0.9717 0.9717 0.2364 -213.5623 1460.7323)" fill="#004999" cx="822.6" cy="866.2" rx="4" ry="4"/>
		
			<ellipse transform="matrix(0.2364 -0.9717 0.9717 0.2364 -327.2349 1235.5613)" fill="#004999" cx="622.5" cy="826" rx="3" ry="3"/>
	</g>
	<circle fill="#008CDB" cx="213.9" cy="189.5" r="4"/>
	
		<ellipse transform="matrix(0.4268 -0.9043 0.9043 0.4268 -47.1545 397.3784)" fill="#008CDB" cx="289.9" cy="235.9" rx="3.8" ry="3.8"/>
	
		<ellipse transform="matrix(0.552 -0.8339 0.8339 0.552 -404.1158 699.7195)" fill="#008CDB" cx="449.1" cy="725.9" rx="3.8" ry="3.8"/>
	
		<ellipse transform="matrix(0.1703 -0.9854 0.9854 0.1703 -393.6736 1003.6124)" fill="#008CDB" cx="399.1" cy="735.6" rx="2.9" ry="2.9"/>
	
		<ellipse transform="matrix(0.1703 -0.9854 0.9854 0.1703 -312.3877 984.3027)" fill="#008CDB" cx="428.3" cy="677.6" rx="3" ry="3"/>
	<circle fill="#008CDB" cx="316.4" cy="230.5" r="3.7"/>
	
		<ellipse transform="matrix(0.1703 -0.9854 0.9854 0.1703 -303.851 1029.4104)" fill="#2AB6F4" cx="459.3" cy="695.1" rx="6.9" ry="6.9"/>
	<g>
		<polygon fill="#2AB6F4" points="1800.2,719.1 1775.4,718.9 1758.9,706.2 1759,693.8 1770.1,672.6 1785.3,671.5 1793.3,659 
			1811.6,665.4 1829.1,674.7 1833.5,694.3 1823,695.4 1821.5,701.7 1816,704.6 1816.4,710.4 1812.2,715.4 1807.6,715.4 		"/>
	</g>
	<g>
		<path opacity="0.8" fill="#00A6FB" d="M11.9,362.7c-4.1-2.9-8-6-11.2-9.5c-0.6-0.6-1.1-1.3-1.6-2v14c2.3,2,4.7,3.8,7.1,5.6
			c8.9,6.4,18.4,11.6,27.9,16.4c17.5,8.7,35.5,16.1,53.7,23v-12.1c-16.7-6.1-33.2-12.7-49-20.3C29.3,373.3,20.2,368.4,11.9,362.7z"
			/>
		<path opacity="0.8" fill="#00A6FB" d="M737.6,336.5c-83.7-8.9-167.6-16.7-251.6-22.9c-42-3.1-84-5.8-126.1-7.8
			c-42.1-2.1-84.2-3.6-126.3-4.2c-42.1-0.5-84.3-0.2-126.5,2.5c-21.1,1.4-42.2,3.3-63.2,7c-10.5,1.9-21,4.2-31.3,7.8
			c-4.5,1.6-9,3.5-13.3,6.1v11.5c1-0.9,2.1-1.9,3.3-2.7c3.8-2.6,8.4-4.7,13.1-6.5c9.5-3.5,19.6-5.9,29.8-7.9
			c20.4-3.9,41.3-6.2,62.2-7.9c20.9-1.7,41.9-2.7,62.9-3.4c21-0.7,42-0.9,63.1-1c42.1,0,84.1,0.9,126.2,2.5
			c42.1,1.6,84.1,3.7,126.1,6.4c84,5.3,168,12.5,251.7,21c40.9,4.2,81.8,8.6,122.6,13.4c0.1-0.1,0.1-0.1,0.2-0.2
			C819.4,345.5,778.5,340.8,737.6,336.5z"/>
	</g>
	<g>
		<polygon fill="#2AB6F4" points="325.9,763.3 320.1,755.1 320.4,746.6 324.5,743.7 334.2,742.4 338.2,747.1 344.2,746.8 
			346.4,754.4 347.4,762.4 342,768.5 339.1,765.3 336.7,766.3 334.4,765.1 332.6,766.6 330,766.4 328.9,764.9 		"/>
	</g>
	<g>
		<polygon fill="#2AB6F4" points="325.9,763.3 320.1,755.1 320.4,746.6 324.5,743.7 334.2,742.4 338.2,747.1 344.2,746.8 
			346.4,754.4 347.4,762.4 342,768.5 339.1,765.3 336.7,766.3 334.4,765.1 332.6,766.6 330,766.4 328.9,764.9 		"/>
	</g>
	<g>
		<polygon fill="#2AB6F4" points="325.9,763.3 320.1,755.1 320.4,746.6 324.5,743.7 334.2,742.4 338.2,747.1 344.2,746.8 
			346.4,754.4 347.4,762.4 342,768.5 339.1,765.3 336.7,766.3 334.4,765.1 332.6,766.6 330,766.4 328.9,764.9 		"/>
	</g>
	<g>
		<path opacity="0.8" fill="#00A6FB" d="M1238.3,403.6c83.1,13.6,166,28.6,248.5,45.3c41.3,8.4,82.4,17.2,123.4,26.7
			c41,9.4,81.9,19.5,122.5,30.5c20.3,5.5,40.5,11.2,60.6,17.4c20.1,6.1,40.1,12.6,59.8,19.6c19.7,7.1,39.3,14.7,58,23.8
			c2.9,1.4,5.9,2.9,8.7,4.5v-9.6c-1.7-0.8-3.4-1.7-5.1-2.5c-19.3-9-39.2-16.4-59.2-23.3c-40-13.6-80.7-24.8-121.5-35.4
			c-40.8-10.5-81.9-19.9-123.1-28.9c-41.2-9-82.5-17.3-123.8-25.3c-82.7-15.9-165.7-30.3-248.9-43.5c-38.3-6.1-76.6-11.9-115-17.5
			c0,0.1,0.1,0.2,0.1,0.2C1161.9,391.3,1200.1,397.3,1238.3,403.6z"/>
		<path opacity="0.8" fill="#00A6FB" d="M1920,621.1c-5.8,1.5-11.6,2.8-17.6,3.9c-20.4,3.8-41.2,6-62.1,7.6
			c-41.8,3.2-83.8,3.9-125.8,3.9c-42-0.1-84-1.2-126-2.9c-42-1.7-84-4-125.9-6.8c-83.9-5.5-167.7-12.8-251.4-21.4
			c-41.8-4.3-83.6-8.9-125.4-13.8c-41.8-4.9-83.5-10.1-125.2-15.7c-41.7-5.5-83.4-11.3-125-17.5c-41.6-6.2-83.2-12.5-124.7-19.3
			c-83-13.5-165.8-28.3-248.3-44.9c-82.4-16.6-164.6-34.7-245.7-56.4c-22.8-6.2-45.6-12.6-68.2-19.5l-4.9,5.4l-8.4,1.9v1.2
			c5.8,1.9,11.5,3.8,17.3,5.6c20.1,6.4,40.4,12.4,60.7,18.1c40.6,11.5,81.5,22,122.5,31.8c41,9.8,82.2,19.1,123.4,27.8
			c41.3,8.7,82.6,16.9,124.1,24.7c41.4,7.8,82.9,15.2,124.5,22.1c83.2,14,166.6,26.4,250.1,37.5c41.8,5.5,83.6,10.7,125.5,15.6
			c41.9,4.8,83.8,9.3,125.8,13.4c83.9,8.2,168,14.8,252.2,19.5c42.1,2.4,84.2,4.2,126.4,5.4c42.2,1.2,84.4,1.7,126.6,1.2
			c21.1-0.2,42.2-0.8,63.3-1.7c21.1-0.9,42.2-2.2,63.3-4.1c21.1-2,42.2-4.5,63.1-8.7c5.2-1.1,10.4-2.2,15.6-3.6V621.1z"/>
	</g>
	<path fill="#2AB6F4" d="M305.3,1080H331c-3.8-4.9-4.7-11.4-2.4-17.2l5.2-13.1l-10.8,9.2c-5,4.2-11.8,5.3-17.9,2.9l-13.1-5.2
		l9.2,10.8C304.3,1070.9,305.7,1075.5,305.3,1080z"/>
</g>
</svg>
