
            <!--?xml version="1.0" encoding="utf-8"?-->
      
      <!-- Generator: Adobe Illustrator 21.0.2, SVG Export Plug-In . SVG Version: 6.00 Build 0)  -->
      <svg version="1.1" id="Layer_1" xmlns="http://www.w3.org/2000/svg" xmlns:xlink="http://www.w3.org/1999/xlink" x="0px" y="0px" width="512px" height="512px" viewBox="0 0 512 512" enable-background="new 0 0 512 512" xml:space="preserve">
      <ellipse fill="#bee5a3" cx="138.5285" cy="167.05754" rx="58.8418" ry="58.83883"></ellipse>
      <ellipse fill="#bee5a3" cx="373.47351" cy="152.8087" rx="58.8418" ry="58.83883"></ellipse>
      <path fill="#bee5a3" d="M144.39949,345.85974v-14.07391c0-0.49887,0.03168-0.99063,0.09288-1.47278
      	c1.10768-17.46136,15.40828-30.98059,33.02872-30.98059h36.41011c-20.25638-12.39975-33.84604-34.66693-33.84604-60.10625
      	c0-0.13628,0.01993-0.26758,0.02063-0.40387H65.46192c-11.62657,0-21.0698,9.25252-21.42741,20.79369H44v64.77933
      	c0,11.85428,9.60762,21.46439,21.46192,21.46439h18.72456v-40.12988h7.49509v40.12988H144.39949z"></path>
      <path fill="#bee5a3" d="M467.96725,245.36703c-0.35724-11.54082-9.80261-20.79333-21.42703-20.79333H319.53427
      	c1.00449,4.7307,1.55389,9.62685,1.55389,14.65251c0,25.43932-13.58929,47.7065-33.8439,60.10625h31.88724v-7.85126h7.49509v8.13559
      	c16.21777,1.4425,29.02496,14.25717,30.05829,30.72046c0.05157,0.41739,0.07187,0.84366,0.07828,1.2735h63.55066V291.4812h7.38406
      	v40.12955h18.84235c11.85428,0,21.45978-9.61011,21.45978-21.46442v-64.7793H467.96725z"></path>
      <ellipse fill="#bee5a3" cx="250.58783" cy="239.22726" rx="58.8418" ry="58.83884"></ellipse>
      <path fill="#bee5a3" d="M345.0816,331.78586c-0.35742-11.54105-9.80273-20.79364-21.42719-20.79364H177.5211
      	c-11.6266,0-21.06976,9.25259-21.42717,20.79364h-0.0347V396.565c0,11.85428,9.60785,21.46448,21.46187,21.46448h18.72473v-40.12979
      	h7.49496v40.12979h93.68727v-40.12979h7.38425v40.12979h18.8421c11.85428,0,21.45972-9.6102,21.45972-21.46448v-64.77914H345.0816z"></path>
      </svg>
      
          